<svg width="23" height="24" viewBox="0 0 23 24" fill="none" xmlns="http://www.w3.org/2000/svg">
<path d="M20.0487 17.2409C20.0487 16.8797 19.9223 16.5727 19.6695 16.3199L16.8524 13.5029C16.5996 13.2501 16.2926 13.1237 15.9315 13.1237C15.5523 13.1237 15.2272 13.2681 14.9563 13.5571C14.9834 13.5842 15.0692 13.6677 15.2137 13.8076C15.3581 13.9476 15.4552 14.0446 15.5049 14.0988C15.5545 14.153 15.6222 14.2388 15.708 14.3561C15.7938 14.4735 15.8525 14.5886 15.8841 14.7015C15.9157 14.8144 15.9315 14.9385 15.9315 15.0739C15.9315 15.4351 15.8051 15.7421 15.5523 15.9949C15.2994 16.2477 14.9925 16.3741 14.6313 16.3741C14.4959 16.3741 14.3717 16.3583 14.2589 16.3267C14.146 16.2951 14.0309 16.2364 13.9135 16.1506C13.7961 16.0649 13.7104 15.9971 13.6562 15.9475C13.602 15.8978 13.5049 15.8008 13.365 15.6563C13.225 15.5118 13.1415 15.4261 13.1144 15.399C12.8165 15.6789 12.6675 16.0084 12.6675 16.3876C12.6675 16.7488 12.7939 17.0558 13.0467 17.3086L15.8367 20.1121C16.0805 20.3559 16.3874 20.4778 16.7576 20.4778C17.1188 20.4778 17.4258 20.3604 17.6786 20.1256L19.6695 18.1483C19.9223 17.8955 20.0487 17.593 20.0487 17.2409ZM10.5276 7.69277C10.5276 7.33161 10.4012 7.02462 10.1484 6.77181L7.35849 3.96832C7.10568 3.71551 6.79869 3.58911 6.43753 3.58911C6.0854 3.58911 5.77842 3.711 5.51658 3.95478L3.5257 5.93212C3.27289 6.18493 3.14648 6.4874 3.14648 6.83953C3.14648 7.20069 3.27289 7.50767 3.5257 7.76048L6.34273 10.5775C6.58651 10.8213 6.8935 10.9432 7.26368 10.9432C7.6429 10.9432 7.96794 10.8032 8.23881 10.5233C8.21172 10.4963 8.12595 10.4127 7.98148 10.2728C7.83702 10.1328 7.73996 10.0358 7.6903 9.98161C7.64064 9.92743 7.57292 9.84166 7.48715 9.72428C7.40137 9.6069 7.34269 9.49178 7.31108 9.37892C7.27948 9.26606 7.26368 9.14191 7.26368 9.00648C7.26368 8.64532 7.39009 8.33834 7.6429 8.08553C7.89571 7.83271 8.20269 7.70631 8.56385 7.70631C8.69929 7.70631 8.82343 7.72211 8.9363 7.75371C9.04916 7.78531 9.16428 7.844 9.28165 7.92978C9.39903 8.01555 9.4848 8.08327 9.53898 8.13293C9.59315 8.18259 9.69021 8.27965 9.83016 8.42411C9.97011 8.56857 10.0536 8.65435 10.0807 8.68144C10.3787 8.40154 10.5276 8.07198 10.5276 7.69277ZM22.649 17.2409C22.649 18.3244 22.2653 19.2408 21.4978 19.9902L19.5069 21.9675C18.7575 22.7169 17.8411 23.0916 16.7576 23.0916C15.6651 23.0916 14.7442 22.7079 13.9948 21.9405L11.2048 19.137C10.4554 18.3876 10.0807 17.4711 10.0807 16.3876C10.0807 15.2771 10.478 14.3336 11.2725 13.5571L10.0807 12.3652C9.30422 13.1598 8.36521 13.5571 7.26368 13.5571C6.18021 13.5571 5.25926 13.1779 4.50082 12.4194L1.68379 9.60239C0.925359 8.84396 0.546143 7.923 0.546143 6.83953C0.546143 5.75606 0.929873 4.83962 1.69733 4.09021L3.68822 2.11287C4.43762 1.36347 5.35406 0.98877 6.43753 0.98877C7.53004 0.98877 8.45099 1.3725 9.20039 2.13996L11.9903 4.94345C12.7397 5.69285 13.1144 6.60929 13.1144 7.69277C13.1144 8.80333 12.7172 9.74685 11.9226 10.5233L13.1144 11.7152C13.8909 10.9206 14.8299 10.5233 15.9315 10.5233C17.0149 10.5233 17.9359 10.9026 18.6943 11.661L21.5114 14.478C22.2698 15.2365 22.649 16.1574 22.649 17.2409Z" fill="black"/>
</svg>
