<svg width="986" height="614" viewBox="0 0 986 614" fill="none" xmlns="http://www.w3.org/2000/svg">
<g filter="url(#filter0_d_1_4498)">
<rect x="50" y="50" width="846" height="474" rx="18.2786" fill="white"/>
<rect x="50.5712" y="50.5712" width="844.858" height="472.858" rx="17.7074" stroke="#EDF2F7" stroke-width="1.14241"/>
</g>
<path d="M165.22 468.857V480H163.812V470.616L160.973 471.651V470.38L164.999 468.857H165.22ZM172.724 480H170.411L170.426 478.805H172.724C173.516 478.805 174.175 478.64 174.703 478.31C175.231 477.975 175.627 477.509 175.891 476.91C176.159 476.306 176.294 475.601 176.294 474.794V474.117C176.294 473.482 176.218 472.919 176.066 472.427C175.913 471.93 175.69 471.511 175.396 471.171C175.101 470.826 174.741 470.565 174.315 470.387C173.894 470.21 173.409 470.121 172.861 470.121H170.365V468.918H172.861C173.587 468.918 174.249 469.04 174.848 469.284C175.447 469.522 175.962 469.87 176.393 470.326C176.829 470.778 177.164 471.326 177.397 471.97C177.631 472.61 177.748 473.33 177.748 474.132V474.794C177.748 475.596 177.631 476.319 177.397 476.963C177.164 477.603 176.827 478.148 176.385 478.6C175.949 479.051 175.421 479.399 174.802 479.642C174.188 479.881 173.496 480 172.724 480ZM171.194 468.918V480H169.726V468.918H171.194Z" fill="#969697"/>
<path d="M394.862 468.857V480H393.454V470.616L390.615 471.651V470.38L394.641 468.857H394.862ZM399.832 468.918H401.255L404.885 477.953L408.508 468.918H409.939L405.433 480H404.322L399.832 468.918ZM399.367 468.918H400.623L400.829 475.677V480H399.367V468.918ZM409.14 468.918H410.396V480H408.934V475.677L409.14 468.918Z" fill="#969697"/>
<path d="M492.611 473.767H493.616C494.108 473.767 494.514 473.685 494.834 473.523C495.159 473.356 495.4 473.13 495.557 472.846C495.719 472.556 495.8 472.232 495.8 471.871C495.8 471.445 495.729 471.087 495.587 470.798C495.445 470.509 495.232 470.291 494.948 470.144C494.664 469.997 494.304 469.923 493.867 469.923C493.471 469.923 493.121 470.002 492.817 470.159C492.518 470.311 492.282 470.529 492.109 470.813C491.942 471.098 491.858 471.433 491.858 471.818H490.45C490.45 471.255 490.592 470.742 490.876 470.281C491.16 469.819 491.559 469.451 492.071 469.177C492.589 468.903 493.187 468.766 493.867 468.766C494.537 468.766 495.123 468.885 495.625 469.124C496.128 469.357 496.518 469.707 496.797 470.174C497.077 470.636 497.216 471.212 497.216 471.902C497.216 472.181 497.15 472.48 497.018 472.8C496.891 473.115 496.691 473.409 496.417 473.683C496.148 473.957 495.798 474.183 495.367 474.36C494.935 474.533 494.418 474.619 493.814 474.619H492.611V473.767ZM492.611 474.923V474.079H493.814C494.519 474.079 495.103 474.162 495.564 474.33C496.026 474.497 496.389 474.72 496.653 475C496.922 475.279 497.11 475.586 497.216 475.92C497.328 476.25 497.384 476.58 497.384 476.91C497.384 477.427 497.295 477.887 497.117 478.288C496.945 478.688 496.699 479.028 496.379 479.307C496.064 479.586 495.694 479.797 495.268 479.939C494.841 480.081 494.377 480.152 493.875 480.152C493.393 480.152 492.939 480.084 492.512 479.947C492.091 479.81 491.718 479.612 491.394 479.353C491.069 479.089 490.815 478.767 490.633 478.386C490.45 478.001 490.359 477.562 490.359 477.07H491.767C491.767 477.455 491.85 477.793 492.018 478.082C492.19 478.371 492.434 478.597 492.748 478.759C493.068 478.917 493.444 478.995 493.875 478.995C494.306 478.995 494.677 478.922 494.986 478.775C495.301 478.622 495.542 478.394 495.709 478.09C495.882 477.785 495.968 477.402 495.968 476.94C495.968 476.479 495.871 476.101 495.679 475.806C495.486 475.507 495.212 475.286 494.857 475.144C494.507 474.997 494.093 474.923 493.616 474.923H492.611ZM500.154 468.918H501.577L505.208 477.953L508.831 468.918H510.261L505.756 480H504.644L500.154 468.918ZM499.69 468.918H500.945L501.151 475.677V480H499.69V468.918ZM509.462 468.918H510.718V480H509.257V475.677L509.462 468.918Z" fill="#969697"/>
<path d="M596.283 468.903H596.404V470.098H596.283C595.537 470.098 594.913 470.22 594.41 470.463C593.908 470.702 593.51 471.024 593.215 471.43C592.921 471.831 592.708 472.282 592.576 472.785C592.449 473.287 592.386 473.797 592.386 474.315V475.943C592.386 476.435 592.444 476.872 592.561 477.252C592.677 477.628 592.837 477.945 593.04 478.204C593.243 478.463 593.472 478.658 593.725 478.79C593.984 478.922 594.253 478.988 594.532 478.988C594.857 478.988 595.146 478.927 595.4 478.805C595.653 478.678 595.866 478.503 596.039 478.28C596.217 478.052 596.351 477.783 596.442 477.473C596.534 477.164 596.579 476.824 596.579 476.453C596.579 476.123 596.539 475.806 596.458 475.502C596.376 475.192 596.252 474.918 596.085 474.68C595.917 474.436 595.707 474.246 595.453 474.109C595.204 473.967 594.907 473.896 594.562 473.896C594.172 473.896 593.806 473.992 593.466 474.185C593.132 474.373 592.855 474.622 592.637 474.931C592.424 475.235 592.302 475.568 592.272 475.928L591.526 475.92C591.597 475.352 591.729 474.868 591.921 474.467C592.119 474.061 592.363 473.731 592.652 473.477C592.946 473.219 593.274 473.031 593.634 472.914C593.999 472.792 594.385 472.731 594.791 472.731C595.344 472.731 595.821 472.835 596.222 473.044C596.622 473.252 596.952 473.531 597.211 473.881C597.47 474.226 597.66 474.616 597.782 475.053C597.909 475.484 597.972 475.928 597.972 476.385C597.972 476.907 597.899 477.397 597.751 477.854C597.604 478.31 597.384 478.711 597.089 479.056C596.8 479.401 596.442 479.67 596.016 479.863C595.59 480.056 595.095 480.152 594.532 480.152C593.933 480.152 593.411 480.03 592.964 479.787C592.518 479.538 592.147 479.208 591.853 478.797C591.559 478.386 591.338 477.93 591.191 477.427C591.044 476.925 590.97 476.415 590.97 475.898V475.235C590.97 474.454 591.049 473.688 591.206 472.937C591.363 472.186 591.635 471.506 592.02 470.897C592.411 470.288 592.951 469.804 593.642 469.443C594.332 469.083 595.212 468.903 596.283 468.903ZM600.476 468.918H601.899L605.53 477.953L609.153 468.918H610.584L606.078 480H604.967L600.476 468.918ZM600.012 468.918H601.268L601.473 475.677V480H600.012V468.918ZM609.785 468.918H611.04V480H609.579V475.677L609.785 468.918Z" fill="#969697"/>
<path d="M696.363 468.857V480H694.955V470.616L692.116 471.651V470.38L696.143 468.857H696.363ZM701.379 468.918L704.256 474.482L707.141 468.918H708.807L704.987 475.86V480H703.518V475.86L699.697 468.918H701.379Z" fill="#969697"/>
<path d="M793.181 478.843V480H785.928V478.988L789.559 474.946C790.005 474.449 790.35 474.028 790.594 473.683C790.842 473.333 791.015 473.021 791.111 472.747C791.213 472.468 791.263 472.183 791.263 471.894C791.263 471.529 791.187 471.199 791.035 470.905C790.888 470.605 790.67 470.367 790.381 470.189C790.091 470.012 789.741 469.923 789.33 469.923C788.838 469.923 788.427 470.019 788.097 470.212C787.772 470.4 787.529 470.664 787.367 471.004C787.204 471.344 787.123 471.734 787.123 472.176H785.715C785.715 471.552 785.852 470.981 786.126 470.463C786.4 469.946 786.806 469.535 787.344 469.23C787.882 468.921 788.544 468.766 789.33 468.766C790.03 468.766 790.629 468.89 791.126 469.139C791.624 469.383 792.004 469.728 792.268 470.174C792.537 470.616 792.671 471.133 792.671 471.727C792.671 472.052 792.616 472.381 792.504 472.716C792.397 473.046 792.248 473.376 792.055 473.706C791.867 474.035 791.646 474.36 791.393 474.68C791.144 475 790.878 475.314 790.594 475.624L787.625 478.843H793.181ZM795.564 468.918L798.441 474.482L801.325 468.918H802.992L799.171 475.86V480H797.702V475.86L793.882 468.918H795.564Z" fill="#969697"/>
<rect x="256.096" y="456" width="56.2874" height="37.5254" rx="10.3916" fill="#DEDEDE" fill-opacity="0.35"/>
<path d="M277.576 475.928L275.826 475.509L276.458 469.892H282.683V471.665H278.261L277.987 474.124C278.135 474.037 278.358 473.946 278.657 473.85C278.957 473.748 279.291 473.697 279.662 473.697C280.2 473.697 280.677 473.781 281.093 473.949C281.509 474.116 281.861 474.36 282.151 474.679C282.445 474.999 282.668 475.39 282.82 475.851C282.973 476.313 283.049 476.836 283.049 477.419C283.049 477.911 282.973 478.381 282.82 478.827C282.668 479.269 282.437 479.665 282.128 480.015C281.818 480.36 281.43 480.631 280.963 480.829C280.496 481.027 279.943 481.126 279.304 481.126C278.827 481.126 278.365 481.055 277.919 480.913C277.477 480.771 277.079 480.56 276.724 480.281C276.374 480.002 276.092 479.665 275.879 479.269C275.671 478.868 275.562 478.411 275.552 477.899H277.729C277.759 478.213 277.84 478.485 277.972 478.713C278.109 478.936 278.289 479.109 278.513 479.231C278.736 479.352 278.997 479.413 279.296 479.413C279.576 479.413 279.814 479.36 280.012 479.254C280.21 479.147 280.37 479 280.491 478.812C280.613 478.619 280.702 478.396 280.758 478.142C280.819 477.884 280.849 477.604 280.849 477.305C280.849 477.006 280.814 476.734 280.743 476.491C280.672 476.247 280.562 476.037 280.415 475.859C280.268 475.681 280.08 475.544 279.852 475.448C279.629 475.352 279.368 475.303 279.068 475.303C278.662 475.303 278.348 475.367 278.124 475.494C277.906 475.621 277.724 475.765 277.576 475.928ZM288.095 480.974H285.682L285.697 479.193H288.095C288.694 479.193 289.198 479.058 289.609 478.789C290.02 478.515 290.33 478.117 290.538 477.594C290.751 477.072 290.858 476.44 290.858 475.699V475.159C290.858 474.591 290.797 474.091 290.675 473.659C290.558 473.228 290.383 472.865 290.15 472.571C289.916 472.277 289.63 472.056 289.29 471.909C288.95 471.757 288.559 471.681 288.118 471.681H285.636V469.892H288.118C288.858 469.892 289.536 470.019 290.15 470.273C290.769 470.521 291.304 470.879 291.756 471.346C292.207 471.812 292.555 472.371 292.798 473.02C293.047 473.665 293.171 474.382 293.171 475.174V475.699C293.171 476.486 293.047 477.204 292.798 477.853C292.555 478.503 292.207 479.061 291.756 479.528C291.309 479.989 290.774 480.347 290.15 480.601C289.531 480.849 288.846 480.974 288.095 480.974ZM286.976 469.892V480.974H284.693V469.892H286.976Z" fill="#141416"/>
<path d="M153.959 348.376C190.53 348.376 194.069 375.595 232.999 375.595C271.928 375.595 262.491 298.235 299.061 298.235C335.632 298.235 315.577 233.053 366.304 233.053C417.03 233.053 393.436 298.235 439.444 298.235C485.452 298.235 478.374 222.145 507.866 222.145C537.358 222.145 529.101 267.435 564.491 267.435C599.882 267.435 583.366 192.734 621.116 192.734C658.866 192.734 655.327 225.342 689.538 225.342C723.749 225.342 727.288 263.137 774.476 263.137C821.664 263.137 792.171 305.264 837 305.264" stroke="#141416" stroke-width="3" stroke-linecap="round" stroke-linejoin="round"/>
<circle cx="728.338" cy="244.622" r="8.09132" fill="white" stroke="#141416" stroke-width="3.14061"/>
<rect x="743" y="194" width="71" height="30" rx="5.21318" fill="#141416"/>
<path d="M752.096 204.785V202.543H756.284V215.211H753.782V204.785H752.096ZM760.043 215.333C759.602 215.333 759.237 215.199 758.948 214.933C758.67 214.655 758.531 214.313 758.531 213.908C758.531 213.502 758.67 213.166 758.948 212.9C759.237 212.622 759.602 212.483 760.043 212.483C760.471 212.483 760.825 212.622 761.103 212.9C761.381 213.166 761.52 213.502 761.52 213.908C761.52 214.313 761.381 214.655 761.103 214.933C760.825 215.199 760.471 215.333 760.043 215.333ZM763.236 205.879C763.294 204.721 763.699 203.829 764.452 203.203C765.217 202.566 766.219 202.248 767.459 202.248C768.304 202.248 769.028 202.398 769.631 202.699C770.233 202.989 770.685 203.389 770.986 203.898C771.299 204.396 771.455 204.964 771.455 205.601C771.455 206.331 771.264 206.951 770.882 207.461C770.511 207.959 770.065 208.295 769.544 208.469V208.538C770.216 208.747 770.737 209.117 771.108 209.65C771.49 210.183 771.681 210.867 771.681 211.701C771.681 212.396 771.519 213.016 771.195 213.56C770.882 214.105 770.413 214.533 769.787 214.846C769.173 215.147 768.432 215.298 767.563 215.298C766.254 215.298 765.188 214.968 764.365 214.307C763.543 213.647 763.109 212.674 763.062 211.388H765.425C765.449 211.956 765.64 212.413 765.999 212.761C766.37 213.097 766.874 213.265 767.511 213.265C768.102 213.265 768.553 213.102 768.866 212.778C769.191 212.442 769.353 212.014 769.353 211.492C769.353 210.797 769.133 210.299 768.692 209.998C768.252 209.697 767.569 209.546 766.642 209.546H766.138V207.548H766.642C768.287 207.548 769.109 206.997 769.109 205.897C769.109 205.399 768.959 205.01 768.658 204.732C768.368 204.454 767.945 204.315 767.389 204.315C766.845 204.315 766.422 204.466 766.121 204.767C765.831 205.057 765.663 205.428 765.617 205.879H763.236ZM780.455 205.045V208.086H784.539V210.015H780.455V213.23H785.06V215.211H778.023V203.064H785.06V205.045H780.455ZM795.525 203.082V205.045H792.293V215.211H789.86V205.045H786.628V203.082H795.525ZM807.362 203.082V215.211H804.929V210.05H799.733V215.211H797.3V203.082H799.733V208.069H804.929V203.082H807.362Z" fill="white"/>
<line opacity="0.05" x1="82.912" y1="401.088" x2="822.463" y2="401.088" stroke="#005A64" stroke-width="1.82492" stroke-linecap="round"/>
<line opacity="0.05" x1="85.3592" y1="335.088" x2="824.91" y2="335.088" stroke="#005A64" stroke-width="1.82492" stroke-linecap="round"/>
<line opacity="0.05" x1="82.912" y1="269.088" x2="822.463" y2="269.088" stroke="#005A64" stroke-width="1.82492" stroke-linecap="round"/>
<line opacity="0.05" x1="83.2098" y1="203.088" x2="822.761" y2="203.088" stroke="#005A64" stroke-width="1.82492" stroke-linecap="round"/>
<path d="M90.5977 425.989V427.833C90.5977 428.824 90.5091 429.66 90.3318 430.342C90.1546 431.023 89.8998 431.571 89.5675 431.986C89.2352 432.402 88.8337 432.704 88.363 432.892C87.8978 433.075 87.3716 433.166 86.7846 433.166C86.3194 433.166 85.8901 433.108 85.4969 432.992C85.1037 432.875 84.7493 432.69 84.4336 432.435C84.1234 432.175 83.8576 431.837 83.6361 431.422C83.4145 431.006 83.2456 430.502 83.1293 429.91C83.013 429.317 82.9549 428.625 82.9549 427.833V425.989C82.9549 424.997 83.0435 424.166 83.2207 423.496C83.4035 422.826 83.661 422.289 83.9933 421.885C84.3256 421.475 84.7243 421.181 85.1896 421.004C85.6603 420.827 86.1864 420.738 86.768 420.738C87.2387 420.738 87.6707 420.796 88.0639 420.913C88.4627 421.024 88.8171 421.204 89.1273 421.453C89.4374 421.696 89.7005 422.023 89.9165 422.433C90.138 422.837 90.3069 423.333 90.4232 423.92C90.5395 424.507 90.5977 425.197 90.5977 425.989ZM89.0525 428.082V425.731C89.0525 425.188 89.0193 424.712 88.9528 424.302C88.8919 423.887 88.8005 423.532 88.6787 423.239C88.5568 422.945 88.4017 422.707 88.2134 422.524C88.0307 422.342 87.8175 422.209 87.5738 422.126C87.3356 422.037 87.067 421.993 86.768 421.993C86.4024 421.993 86.0784 422.062 85.796 422.2C85.5135 422.333 85.2754 422.547 85.0816 422.84C84.8933 423.134 84.7493 423.518 84.6496 423.995C84.5499 424.471 84.5 425.05 84.5 425.731V428.082C84.5 428.625 84.5305 429.104 84.5914 429.519C84.6579 429.935 84.7548 430.295 84.8822 430.599C85.0096 430.898 85.1646 431.145 85.3474 431.339C85.5302 431.532 85.7406 431.676 85.9788 431.771C86.2224 431.859 86.491 431.903 86.7846 431.903C87.1612 431.903 87.4907 431.831 87.7731 431.687C88.0556 431.543 88.291 431.319 88.4793 431.015C88.6731 430.704 88.8171 430.308 88.9113 429.827C89.0054 429.339 89.0525 428.758 89.0525 428.082Z" fill="#141416"/>
<path d="M91.5977 363.989V365.833C91.5977 366.824 91.5091 367.66 91.3318 368.342C91.1546 369.023 90.8998 369.571 90.5675 369.986C90.2352 370.402 89.8337 370.704 89.363 370.892C88.8978 371.075 88.3716 371.166 87.7846 371.166C87.3194 371.166 86.8901 371.108 86.4969 370.992C86.1037 370.875 85.7493 370.69 85.4336 370.435C85.1234 370.175 84.8576 369.837 84.6361 369.422C84.4145 369.006 84.2456 368.502 84.1293 367.91C84.013 367.317 83.9549 366.625 83.9549 365.833V363.989C83.9549 362.997 84.0435 362.166 84.2207 361.496C84.4035 360.826 84.661 360.289 84.9933 359.885C85.3256 359.475 85.7243 359.181 86.1896 359.004C86.6603 358.827 87.1864 358.738 87.768 358.738C88.2387 358.738 88.6707 358.796 89.0639 358.913C89.4627 359.024 89.8171 359.204 90.1273 359.453C90.4374 359.696 90.7005 360.023 90.9165 360.433C91.138 360.837 91.3069 361.333 91.4232 361.92C91.5395 362.507 91.5977 363.197 91.5977 363.989ZM90.0525 366.082V363.731C90.0525 363.188 90.0193 362.712 89.9528 362.302C89.8919 361.887 89.8005 361.532 89.6787 361.239C89.5568 360.945 89.4017 360.707 89.2134 360.524C89.0307 360.342 88.8175 360.209 88.5738 360.126C88.3356 360.037 88.067 359.993 87.768 359.993C87.4024 359.993 87.0784 360.062 86.796 360.2C86.5135 360.333 86.2754 360.547 86.0816 360.84C85.8933 361.134 85.7493 361.518 85.6496 361.995C85.5499 362.471 85.5 363.05 85.5 363.731V366.082C85.5 366.625 85.5305 367.104 85.5914 367.519C85.6579 367.935 85.7548 368.295 85.8822 368.599C86.0096 368.898 86.1646 369.145 86.3474 369.339C86.5302 369.532 86.7406 369.676 86.9788 369.771C87.2224 369.859 87.491 369.903 87.7846 369.903C88.1612 369.903 88.4907 369.831 88.7731 369.687C89.0556 369.543 89.291 369.319 89.4793 369.015C89.6731 368.704 89.8171 368.308 89.9113 367.827C90.0054 367.339 90.0525 366.758 90.0525 366.082ZM93.7659 370.186C93.7659 369.926 93.8462 369.707 94.0068 369.53C94.173 369.347 94.4111 369.255 94.7212 369.255C95.0314 369.255 95.2668 369.347 95.4274 369.53C95.5935 369.707 95.6766 369.926 95.6766 370.186C95.6766 370.441 95.5935 370.657 95.4274 370.834C95.2668 371.011 95.0314 371.1 94.7212 371.1C94.4111 371.1 94.173 371.011 94.0068 370.834C93.8462 370.657 93.7659 370.441 93.7659 370.186ZM100.005 365.243L98.7752 364.927L99.3817 358.904H105.587V360.325H100.686L100.32 363.615C100.542 363.487 100.822 363.368 101.159 363.258C101.503 363.147 101.896 363.091 102.339 363.091C102.898 363.091 103.4 363.188 103.843 363.382C104.286 363.57 104.662 363.842 104.973 364.196C105.288 364.551 105.529 364.977 105.695 365.476C105.861 365.974 105.945 366.531 105.945 367.145C105.945 367.727 105.864 368.261 105.704 368.749C105.549 369.236 105.313 369.663 104.997 370.028C104.682 370.388 104.283 370.668 103.801 370.867C103.325 371.066 102.763 371.166 102.115 371.166C101.627 371.166 101.165 371.1 100.727 370.967C100.296 370.828 99.9078 370.621 99.5645 370.344C99.2266 370.061 98.9497 369.712 98.7337 369.297C98.5233 368.876 98.3903 368.383 98.335 367.818H99.7971C99.8635 368.272 99.9964 368.655 100.196 368.965C100.395 369.275 100.655 369.51 100.977 369.671C101.303 369.826 101.683 369.903 102.115 369.903C102.48 369.903 102.804 369.84 103.087 369.712C103.369 369.585 103.607 369.402 103.801 369.164C103.995 368.926 104.142 368.638 104.242 368.3C104.347 367.962 104.399 367.583 104.399 367.162C104.399 366.78 104.347 366.425 104.242 366.099C104.136 365.772 103.978 365.487 103.768 365.243C103.563 364.999 103.311 364.811 103.012 364.678C102.713 364.54 102.37 364.47 101.982 364.47C101.467 364.47 101.076 364.54 100.811 364.678C100.55 364.817 100.282 365.005 100.005 365.243Z" fill="#141416"/>
<path d="M88.0556 296.838V309H86.5187V298.757L83.4201 299.887V298.499L87.8147 296.838H88.0556ZM92.7659 308.186C92.7659 307.926 92.8462 307.707 93.0068 307.53C93.173 307.347 93.4111 307.255 93.7212 307.255C94.0314 307.255 94.2668 307.347 94.4274 307.53C94.5935 307.707 94.6766 307.926 94.6766 308.186C94.6766 308.441 94.5935 308.657 94.4274 308.834C94.2668 309.011 94.0314 309.1 93.7212 309.1C93.4111 309.1 93.173 309.011 93.0068 308.834C92.8462 308.657 92.7659 308.441 92.7659 308.186ZM104.654 301.989V303.833C104.654 304.824 104.565 305.66 104.388 306.342C104.211 307.023 103.956 307.571 103.624 307.986C103.291 308.402 102.89 308.704 102.419 308.892C101.954 309.075 101.428 309.166 100.841 309.166C100.375 309.166 99.9462 309.108 99.553 308.992C99.1598 308.875 98.8054 308.69 98.4897 308.435C98.1795 308.175 97.9137 307.837 97.6922 307.422C97.4706 307.006 97.3017 306.502 97.1854 305.91C97.0691 305.317 97.011 304.625 97.011 303.833V301.989C97.011 300.997 97.0996 300.166 97.2768 299.496C97.4596 298.826 97.7171 298.289 98.0494 297.885C98.3817 297.475 98.7804 297.181 99.2457 297.004C99.7164 296.827 100.243 296.738 100.824 296.738C101.295 296.738 101.727 296.796 102.12 296.913C102.519 297.024 102.873 297.204 103.183 297.453C103.494 297.696 103.757 298.023 103.973 298.433C104.194 298.837 104.363 299.333 104.479 299.92C104.596 300.507 104.654 301.197 104.654 301.989ZM103.109 304.082V301.731C103.109 301.188 103.075 300.712 103.009 300.302C102.948 299.887 102.857 299.532 102.735 299.239C102.613 298.945 102.458 298.707 102.27 298.524C102.087 298.342 101.874 298.209 101.63 298.126C101.392 298.037 101.123 297.993 100.824 297.993C100.459 297.993 100.135 298.062 99.8521 298.2C99.5696 298.333 99.3315 298.547 99.1377 298.84C98.9494 299.134 98.8054 299.518 98.7057 299.995C98.606 300.471 98.5561 301.05 98.5561 301.731V304.082C98.5561 304.625 98.5866 305.104 98.6475 305.519C98.714 305.935 98.8109 306.295 98.9383 306.599C99.0657 306.898 99.2207 307.145 99.4035 307.339C99.5863 307.532 99.7967 307.676 100.035 307.771C100.279 307.859 100.547 307.903 100.841 307.903C101.217 307.903 101.547 307.831 101.829 307.687C102.112 307.543 102.347 307.319 102.535 307.015C102.729 306.704 102.873 306.308 102.967 305.827C103.062 305.339 103.109 304.758 103.109 304.082Z" fill="#141416"/>
<path d="M86.0556 234.838V247H84.5187V236.757L81.4201 237.887V236.499L85.8147 234.838H86.0556ZM90.7659 246.186C90.7659 245.926 90.8462 245.707 91.0068 245.53C91.173 245.347 91.4111 245.255 91.7212 245.255C92.0314 245.255 92.2668 245.347 92.4274 245.53C92.5935 245.707 92.6766 245.926 92.6766 246.186C92.6766 246.441 92.5935 246.657 92.4274 246.834C92.2668 247.011 92.0314 247.1 91.7212 247.1C91.4111 247.1 91.173 247.011 91.0068 246.834C90.8462 246.657 90.7659 246.441 90.7659 246.186ZM97.0047 241.243L95.7752 240.927L96.3817 234.904H102.587V236.325H97.6859L97.3204 239.615C97.542 239.487 97.8216 239.368 98.1595 239.258C98.5028 239.147 98.8961 239.091 99.3391 239.091C99.8985 239.091 100.4 239.188 100.843 239.382C101.286 239.57 101.662 239.842 101.973 240.196C102.288 240.551 102.529 240.977 102.695 241.476C102.861 241.974 102.945 242.531 102.945 243.145C102.945 243.727 102.864 244.261 102.704 244.749C102.549 245.236 102.313 245.663 101.997 246.028C101.682 246.388 101.283 246.668 100.801 246.867C100.325 247.066 99.7628 247.166 99.1148 247.166C98.6275 247.166 98.165 247.1 97.7275 246.967C97.2955 246.828 96.9078 246.621 96.5645 246.344C96.2266 246.061 95.9497 245.712 95.7337 245.297C95.5233 244.876 95.3903 244.383 95.335 243.818H96.7971C96.8635 244.272 96.9964 244.655 97.1958 244.965C97.3952 245.275 97.6555 245.51 97.9767 245.671C98.3035 245.826 98.6828 245.903 99.1148 245.903C99.4803 245.903 99.8043 245.84 100.087 245.712C100.369 245.585 100.607 245.402 100.801 245.164C100.995 244.926 101.142 244.638 101.242 244.3C101.347 243.962 101.399 243.583 101.399 243.162C101.399 242.78 101.347 242.425 101.242 242.099C101.136 241.772 100.978 241.487 100.768 241.243C100.563 240.999 100.311 240.811 100.012 240.678C99.713 240.54 99.3696 240.47 98.9819 240.47C98.4668 240.47 98.0764 240.54 97.8106 240.678C97.5503 240.817 97.2817 241.005 97.0047 241.243Z" fill="#141416"/>
<path d="M88.93 183.737V185H81.013V183.895L84.9756 179.484C85.463 178.941 85.8396 178.481 86.1054 178.105C86.3768 177.723 86.5651 177.382 86.6703 177.083C86.7811 176.778 86.8365 176.468 86.8365 176.153C86.8365 175.754 86.7534 175.394 86.5873 175.073C86.4267 174.746 86.1885 174.486 85.8728 174.292C85.5572 174.098 85.175 174.001 84.7264 174.001C84.1892 174.001 83.7406 174.106 83.3806 174.317C83.0262 174.522 82.7603 174.81 82.5831 175.181C82.4059 175.552 82.3173 175.978 82.3173 176.46H80.7804C80.7804 175.779 80.9299 175.156 81.229 174.591C81.5281 174.026 81.9711 173.577 82.5582 173.245C83.1452 172.907 83.868 172.738 84.7264 172.738C85.4907 172.738 86.1442 172.874 86.687 173.145C87.2297 173.411 87.6451 173.788 87.9331 174.275C88.2266 174.757 88.3734 175.322 88.3734 175.97C88.3734 176.324 88.3124 176.684 88.1906 177.05C88.0743 177.41 87.9109 177.77 87.7005 178.13C87.4955 178.49 87.2546 178.844 86.9777 179.193C86.7063 179.542 86.4156 179.885 86.1054 180.223L82.8656 183.737H88.93ZM90.7659 184.186C90.7659 183.926 90.8462 183.707 91.0068 183.53C91.173 183.347 91.4111 183.255 91.7212 183.255C92.0314 183.255 92.2668 183.347 92.4274 183.53C92.5935 183.707 92.6766 183.926 92.6766 184.186C92.6766 184.441 92.5935 184.657 92.4274 184.834C92.2668 185.011 92.0314 185.1 91.7212 185.1C91.4111 185.1 91.173 185.011 91.0068 184.834C90.8462 184.657 90.7659 184.441 90.7659 184.186ZM102.654 177.989V179.833C102.654 180.824 102.565 181.66 102.388 182.342C102.211 183.023 101.956 183.571 101.624 183.986C101.291 184.402 100.89 184.704 100.419 184.892C99.9539 185.075 99.4277 185.166 98.8407 185.166C98.3755 185.166 97.9462 185.108 97.553 184.992C97.1598 184.875 96.8054 184.69 96.4897 184.435C96.1795 184.175 95.9137 183.837 95.6922 183.422C95.4706 183.006 95.3017 182.502 95.1854 181.91C95.0691 181.317 95.011 180.625 95.011 179.833V177.989C95.011 176.997 95.0996 176.166 95.2768 175.496C95.4596 174.826 95.7171 174.289 96.0494 173.885C96.3817 173.475 96.7804 173.181 97.2457 173.004C97.7164 172.827 98.2425 172.738 98.8241 172.738C99.2948 172.738 99.7268 172.796 100.12 172.913C100.519 173.024 100.873 173.204 101.183 173.453C101.494 173.696 101.757 174.023 101.973 174.433C102.194 174.837 102.363 175.333 102.479 175.92C102.596 176.507 102.654 177.197 102.654 177.989ZM101.109 180.082V177.731C101.109 177.188 101.075 176.712 101.009 176.302C100.948 175.887 100.857 175.532 100.735 175.239C100.613 174.945 100.458 174.707 100.27 174.524C100.087 174.342 99.8736 174.209 99.6299 174.126C99.3917 174.037 99.1231 173.993 98.8241 173.993C98.4585 173.993 98.1345 174.062 97.8521 174.2C97.5696 174.333 97.3315 174.547 97.1377 174.84C96.9494 175.134 96.8054 175.518 96.7057 175.995C96.606 176.471 96.5561 177.05 96.5561 177.731V180.082C96.5561 180.625 96.5866 181.104 96.6475 181.519C96.714 181.935 96.8109 182.295 96.9383 182.599C97.0657 182.898 97.2207 183.145 97.4035 183.339C97.5863 183.532 97.7967 183.676 98.0349 183.771C98.2785 183.859 98.5471 183.903 98.8407 183.903C99.2173 183.903 99.5468 183.831 99.8293 183.687C100.112 183.543 100.347 183.319 100.535 183.015C100.729 182.704 100.873 182.308 100.967 181.827C101.062 181.339 101.109 180.758 101.109 180.082Z" fill="#141416"/>
<path d="M86.98 90.7683C87.7888 90.9191 88.4537 91.3235 88.9746 91.9815C89.4956 92.6396 89.7561 93.3936 89.7561 94.2435C89.7561 95.0112 89.5641 95.6898 89.1803 96.2793C88.8101 96.8551 88.2686 97.3075 87.5558 97.6365C86.8429 97.9655 85.9998 98.13 85.0265 98.13H78.8368V83.7767H84.7591C85.7325 83.7767 86.5687 83.9344 87.2679 84.2497C87.9807 84.565 88.5154 85.0037 88.8718 85.5657C89.242 86.1278 89.427 86.7653 89.427 87.4781C89.427 88.3144 89.2008 89.0135 88.7484 89.5756C88.3098 90.1377 87.7203 90.5352 86.98 90.7683ZM81.7157 89.699H84.3479C85.0333 89.699 85.5611 89.5482 85.9312 89.2466C86.3014 88.9313 86.4865 88.4857 86.4865 87.91C86.4865 87.3342 86.3014 86.8886 85.9312 86.5733C85.5611 86.258 85.0333 86.1004 84.3479 86.1004H81.7157V89.699ZM84.6152 95.7858C85.3143 95.7858 85.8558 95.6213 86.2397 95.2922C86.6373 94.9632 86.836 94.4971 86.836 93.8939C86.836 93.277 86.6304 92.7972 86.2191 92.4545C85.8079 92.0981 85.2527 91.9198 84.5535 91.9198H81.7157V95.7858H84.6152ZM93.739 85.3807C93.2317 85.3807 92.8068 85.223 92.464 84.9077C92.135 84.5787 91.9705 84.1743 91.9705 83.6944C91.9705 83.2146 92.135 82.8171 92.464 82.5018C92.8068 82.1728 93.2317 82.0082 93.739 82.0082C94.2462 82.0082 94.6643 82.1728 94.9933 82.5018C95.3361 82.8171 95.5074 83.2146 95.5074 83.6944C95.5074 84.1743 95.3361 84.5787 94.9933 84.9077C94.6643 85.223 94.2462 85.3807 93.739 85.3807ZM95.1579 86.7378V98.13H92.279V86.7378H95.1579ZM97.4904 92.3928C97.4904 91.2412 97.7166 90.2199 98.169 89.3288C98.6351 88.4378 99.2657 87.7523 100.061 87.2725C100.856 86.7927 101.74 86.5528 102.714 86.5528C103.454 86.5528 104.16 86.7173 104.832 87.0463C105.503 87.3616 106.038 87.7866 106.436 88.3212V82.913H109.356V98.13H106.436V96.4438C106.079 97.0059 105.579 97.4583 104.934 97.801C104.29 98.1437 103.543 98.3151 102.693 98.3151C101.733 98.3151 100.856 98.0683 100.061 97.5748C99.2657 97.0813 98.6351 96.389 98.169 95.4979C97.7166 94.5931 97.4904 93.5581 97.4904 92.3928ZM106.456 92.4339C106.456 91.7348 106.319 91.1384 106.045 90.6449C105.771 90.1377 105.4 89.7538 104.934 89.4933C104.468 89.2192 103.968 89.0821 103.433 89.0821C102.899 89.0821 102.405 89.2123 101.953 89.4728C101.5 89.7333 101.13 90.1171 100.842 90.6243C100.568 91.1179 100.431 91.7073 100.431 92.3928C100.431 93.0782 100.568 93.6814 100.842 94.2024C101.13 94.7096 101.5 95.1003 101.953 95.3745C102.419 95.6487 102.912 95.7858 103.433 95.7858C103.968 95.7858 104.468 95.6555 104.934 95.3951C105.4 95.1209 105.771 94.737 106.045 94.2435C106.319 93.7363 106.456 93.1331 106.456 92.4339ZM129.43 83.7767V98.13H126.551V92.0227H120.403V98.13H117.524V83.7767H120.403V89.6784H126.551V83.7767H129.43ZM133.952 85.3807C133.445 85.3807 133.02 85.223 132.677 84.9077C132.348 84.5787 132.184 84.1743 132.184 83.6944C132.184 83.2146 132.348 82.8171 132.677 82.5018C133.02 82.1728 133.445 82.0082 133.952 82.0082C134.46 82.0082 134.878 82.1728 135.207 82.5018C135.55 82.8171 135.721 83.2146 135.721 83.6944C135.721 84.1743 135.55 84.5787 135.207 84.9077C134.878 85.223 134.46 85.3807 133.952 85.3807ZM135.371 86.7378V98.13H132.492V86.7378H135.371ZM142.804 98.3151C141.871 98.3151 141.035 98.1506 140.295 97.8216C139.555 97.4788 138.965 97.0196 138.526 96.4438C138.101 95.868 137.868 95.2306 137.827 94.5314H140.727C140.782 94.9701 140.994 95.3334 141.364 95.6213C141.748 95.9092 142.221 96.0531 142.783 96.0531C143.331 96.0531 143.756 95.9434 144.058 95.7241C144.373 95.5047 144.531 95.2237 144.531 94.881C144.531 94.5108 144.339 94.2367 143.955 94.0584C143.585 93.8665 142.989 93.6609 142.166 93.4415C141.316 93.2359 140.617 93.0234 140.069 92.8041C139.534 92.5847 139.068 92.2489 138.67 91.7965C138.286 91.3441 138.095 90.734 138.095 89.9663C138.095 89.3357 138.273 88.7599 138.629 88.239C138.999 87.718 139.52 87.3068 140.192 87.0052C140.877 86.7036 141.679 86.5528 142.598 86.5528C143.955 86.5528 145.038 86.8955 145.847 87.5809C146.656 88.2527 147.101 89.1643 147.184 90.3159H144.428C144.387 89.8635 144.195 89.5071 143.852 89.2466C143.523 88.9724 143.078 88.8353 142.516 88.8353C141.995 88.8353 141.59 88.9313 141.302 89.1232C141.028 89.3151 140.891 89.5825 140.891 89.9252C140.891 90.309 141.083 90.6038 141.467 90.8094C141.851 91.0013 142.447 91.2001 143.256 91.4058C144.079 91.6114 144.757 91.8239 145.292 92.0432C145.826 92.2626 146.286 92.6053 146.67 93.0714C147.067 93.5238 147.273 94.127 147.286 94.881C147.286 95.539 147.101 96.1285 146.731 96.6494C146.375 97.1704 145.854 97.5816 145.168 97.8832C144.497 98.1711 143.708 98.3151 142.804 98.3151ZM153.23 89.1026V94.6137C153.23 94.9975 153.319 95.2785 153.497 95.4568C153.689 95.6213 154.005 95.7035 154.443 95.7035H155.78V98.13H153.97C151.544 98.13 150.33 96.951 150.33 94.5931V89.1026H148.973V86.7378H150.33V83.9206H153.23V86.7378H155.78V89.1026H153.23ZM163.138 98.3151C162.041 98.3151 161.054 98.0752 160.176 97.5954C159.299 97.1018 158.607 96.4095 158.1 95.5184C157.606 94.6274 157.359 93.5992 157.359 92.4339C157.359 91.2687 157.613 90.2405 158.12 89.3494C158.641 88.4583 159.347 87.7729 160.238 87.2931C161.129 86.7995 162.123 86.5528 163.22 86.5528C164.317 86.5528 165.31 86.7995 166.202 87.2931C167.093 87.7729 167.792 88.4583 168.299 89.3494C168.82 90.2405 169.08 91.2687 169.08 92.4339C169.08 93.5992 168.813 94.6274 168.278 95.5184C167.757 96.4095 167.045 97.1018 166.14 97.5954C165.249 98.0752 164.248 98.3151 163.138 98.3151ZM163.138 95.8063C163.658 95.8063 164.145 95.683 164.598 95.4362C165.064 95.1757 165.434 94.7919 165.708 94.2846C165.982 93.7774 166.119 93.1605 166.119 92.4339C166.119 91.3509 165.831 90.5215 165.256 89.9457C164.694 89.3563 164.001 89.0615 163.179 89.0615C162.356 89.0615 161.664 89.3563 161.102 89.9457C160.553 90.5215 160.279 91.3509 160.279 92.4339C160.279 93.5169 160.547 94.3532 161.081 94.9427C161.63 95.5184 162.315 95.8063 163.138 95.8063ZM174.3 88.5063C174.67 87.9031 175.149 87.4301 175.739 87.0874C176.342 86.7447 177.028 86.5733 177.795 86.5733V89.5962H177.034C176.13 89.5962 175.444 89.8087 174.978 90.2336C174.526 90.6586 174.3 91.3989 174.3 92.4545V98.13H171.421V86.7378H174.3V88.5063ZM190.862 86.7378L183.808 103.518H180.744L183.212 97.8421L178.647 86.7378H181.875L184.816 94.6959L187.798 86.7378H190.862Z" fill="#1A202C"/>
<rect x="678.328" y="71.418" width="158.796" height="38.8421" rx="9.13932" fill="#FAFAFA"/>
<path d="M699.113 85.8112V92.6794C699.113 93.5294 698.853 94.2011 698.332 94.6947C697.82 95.1882 697.144 95.435 696.303 95.435C695.462 95.435 694.781 95.1882 694.26 94.6947C693.749 94.2011 693.493 93.5294 693.493 92.6794H695.069C695.078 93.0999 695.184 93.4334 695.385 93.6802C695.595 93.927 695.901 94.0503 696.303 94.0503C696.705 94.0503 697.011 93.927 697.222 93.6802C697.432 93.4243 697.537 93.0907 697.537 92.6794V85.8112H699.113ZM708.954 87.7853V95.339H707.391V94.4479C707.144 94.7586 706.82 95.0054 706.417 95.1882C706.024 95.3618 705.604 95.4487 705.156 95.4487C704.562 95.4487 704.027 95.3253 703.552 95.0785C703.086 94.8318 702.716 94.4662 702.442 93.9818C702.177 93.4974 702.044 92.9125 702.044 92.2271V87.7853H703.593V91.994C703.593 92.6703 703.762 93.1912 704.101 93.5568C704.439 93.9133 704.9 94.0915 705.485 94.0915C706.07 94.0915 706.532 93.9133 706.87 93.5568C707.217 93.1912 707.391 92.6703 707.391 91.994V87.7853H708.954ZM715.284 87.662C715.878 87.662 716.408 87.7853 716.874 88.0321C717.349 88.2789 717.719 88.6444 717.984 89.1288C718.249 89.6132 718.382 90.1981 718.382 90.8836V95.339H716.833V91.1166C716.833 90.4403 716.664 89.9239 716.326 89.5675C715.987 89.2019 715.526 89.0191 714.941 89.0191C714.356 89.0191 713.89 89.2019 713.543 89.5675C713.204 89.9239 713.035 90.4403 713.035 91.1166V95.339H711.473V87.7853H713.035V88.649C713.291 88.3383 713.616 88.0961 714.009 87.9224C714.411 87.7488 714.836 87.662 715.284 87.662ZM724.439 86.7709V85.3451H727.291V95.339H725.714V86.7709H724.439ZM729.895 90.2118C729.895 88.6307 730.16 87.3969 730.69 86.5104C731.229 85.6148 732.152 85.1669 733.459 85.1669C734.766 85.1669 735.684 85.6148 736.214 86.5104C736.754 87.3969 737.023 88.6307 737.023 90.2118C737.023 91.8112 736.754 93.0633 736.214 93.9681C735.684 94.8637 734.766 95.3116 733.459 95.3116C732.152 95.3116 731.229 94.8637 730.69 93.9681C730.16 93.0633 729.895 91.8112 729.895 90.2118ZM735.488 90.2118C735.488 89.4715 735.438 88.8455 735.337 88.3337C735.246 87.8219 735.054 87.4061 734.761 87.0862C734.469 86.7572 734.035 86.5927 733.459 86.5927C732.883 86.5927 732.449 86.7572 732.157 87.0862C731.864 87.4061 731.668 87.8219 731.567 88.3337C731.476 88.8455 731.43 89.4715 731.43 90.2118C731.43 90.9795 731.476 91.6239 731.567 92.1448C731.658 92.6657 731.85 93.0861 732.143 93.406C732.444 93.7259 732.883 93.8858 733.459 93.8858C734.035 93.8858 734.469 93.7259 734.761 93.406C735.063 93.0861 735.259 92.6657 735.351 92.1448C735.442 91.6239 735.488 90.9795 735.488 90.2118ZM749.156 89.7183V91.0344H743.522V89.7183H749.156ZM761.048 85.8112V92.6794C761.048 93.5294 760.787 94.2011 760.266 94.6947C759.754 95.1882 759.078 95.435 758.237 95.435C757.396 95.435 756.715 95.1882 756.195 94.6947C755.683 94.2011 755.427 93.5294 755.427 92.6794H757.003C757.012 93.0999 757.118 93.4334 757.319 93.6802C757.529 93.927 757.835 94.0503 758.237 94.0503C758.639 94.0503 758.945 93.927 759.156 93.6802C759.366 93.4243 759.471 93.0907 759.471 92.6794V85.8112H761.048ZM770.888 87.7853V95.339H769.325V94.4479C769.078 94.7586 768.754 95.0054 768.351 95.1882C767.958 95.3618 767.538 95.4487 767.09 95.4487C766.496 95.4487 765.962 95.3253 765.486 95.0785C765.02 94.8318 764.65 94.4662 764.376 93.9818C764.111 93.4974 763.978 92.9125 763.978 92.2271V87.7853H765.527V91.994C765.527 92.6703 765.696 93.1912 766.035 93.5568C766.373 93.9133 766.834 94.0915 767.419 94.0915C768.004 94.0915 768.466 93.9133 768.804 93.5568C769.151 93.1912 769.325 92.6703 769.325 91.994V87.7853H770.888ZM777.218 87.662C777.812 87.662 778.342 87.7853 778.808 88.0321C779.283 88.2789 779.653 88.6444 779.918 89.1288C780.183 89.6132 780.316 90.1981 780.316 90.8836V95.339H778.767V91.1166C778.767 90.4403 778.598 89.9239 778.26 89.5675C777.921 89.2019 777.46 89.0191 776.875 89.0191C776.29 89.0191 775.824 89.2019 775.477 89.5675C775.139 89.9239 774.969 90.4403 774.969 91.1166V95.339H773.407V87.7853H774.969V88.649C775.225 88.3383 775.55 88.0961 775.943 87.9224C776.345 87.7488 776.77 87.662 777.218 87.662ZM786.373 86.7709V85.3451H789.225V95.339H787.648V86.7709H786.373ZM797.203 87.662C797.102 87.2416 796.919 86.9262 796.654 86.716C796.389 86.5058 796.019 86.4007 795.544 86.4007C794.822 86.4007 794.282 86.6795 793.926 87.237C793.57 87.7853 793.382 88.6993 793.364 89.9788C793.602 89.5766 793.949 89.2659 794.406 89.0466C794.863 88.8272 795.356 88.7176 795.886 88.7176C796.49 88.7176 797.02 88.8501 797.477 89.1151C797.943 89.371 798.304 89.7457 798.56 90.2392C798.825 90.7328 798.957 91.3223 798.957 92.0077C798.957 92.6475 798.829 93.2187 798.573 93.7213C798.327 94.224 797.957 94.6216 797.463 94.914C796.969 95.1973 796.375 95.339 795.681 95.339C794.739 95.339 793.999 95.1334 793.46 94.7221C792.93 94.3017 792.555 93.7122 792.336 92.9536C792.126 92.1951 792.021 91.2491 792.021 90.1159C792.021 86.7709 793.199 85.0984 795.557 85.0984C796.471 85.0984 797.189 85.3451 797.71 85.8387C798.24 86.3322 798.551 86.94 798.642 87.662H797.203ZM795.544 90.0336C794.986 90.0336 794.511 90.2027 794.118 90.5408C793.734 90.8699 793.542 91.3497 793.542 91.9803C793.542 92.6109 793.72 93.1136 794.077 93.4883C794.442 93.8538 794.95 94.0366 795.599 94.0366C796.174 94.0366 796.627 93.8584 796.956 93.502C797.294 93.1456 797.463 92.6703 797.463 92.0763C797.463 91.4548 797.298 90.9613 796.969 90.5957C796.65 90.221 796.174 90.0336 795.544 90.0336Z" fill="#1A202C"/>
<path d="M808.941 88.5542L813.511 93.1239L818.08 88.5542" stroke="#1A202C" stroke-width="1.71362" stroke-linecap="round" stroke-linejoin="round"/>
<rect x="562.944" y="88.5542" width="13.709" height="4.56966" rx="2.28483" fill="#141416"/>
<path d="M588.384 87.0725V89.8691H591.674V91.144H588.384V94.0641H592.085V95.339H586.821V85.7975H592.085V87.0725H588.384ZM597.702 91.5142L600.143 95.339H598.374L596.743 92.7754L595.207 95.339H593.576L596.016 91.6239L593.576 87.7853H595.344L596.976 90.3489L598.511 87.7853H600.143L597.702 91.5142ZM603.328 88.8958C603.593 88.5485 603.954 88.256 604.411 88.0184C604.868 87.7808 605.384 87.662 605.96 87.662C606.618 87.662 607.217 87.8265 607.756 88.1555C608.304 88.4754 608.734 88.9278 609.045 89.5127C609.355 90.0976 609.511 90.7693 609.511 91.5279C609.511 92.2865 609.355 92.9673 609.045 93.5705C608.734 94.1646 608.304 94.6307 607.756 94.9688C607.217 95.2979 606.618 95.4624 605.96 95.4624C605.384 95.4624 604.872 95.3481 604.425 95.1196C603.977 94.882 603.611 94.5896 603.328 94.2423V98.9307H601.765V87.7853H603.328V88.8958ZM607.92 91.5279C607.92 91.007 607.811 90.5591 607.591 90.1844C607.381 89.8006 607.098 89.5127 606.741 89.3207C606.394 89.1197 606.019 89.0191 605.617 89.0191C605.224 89.0191 604.85 89.1197 604.493 89.3207C604.146 89.5218 603.863 89.8143 603.643 90.1981C603.433 90.582 603.328 91.0344 603.328 91.5553C603.328 92.0763 603.433 92.5332 603.643 92.9262C603.863 93.3101 604.146 93.6025 604.493 93.8036C604.85 94.0046 605.224 94.1052 605.617 94.1052C606.019 94.1052 606.394 94.0046 606.741 93.8036C607.098 93.5934 607.381 93.2918 607.591 92.8988C607.811 92.5058 607.92 92.0488 607.92 91.5279ZM618.436 91.3771C618.436 91.6604 618.418 91.9163 618.381 92.1448H612.61C612.656 92.748 612.879 93.2324 613.282 93.5979C613.684 93.9635 614.177 94.1463 614.762 94.1463C615.603 94.1463 616.197 93.7944 616.544 93.0907H618.231C618.002 93.7853 617.586 94.3565 616.983 94.8043C616.389 95.243 615.649 95.4624 614.762 95.4624C614.04 95.4624 613.391 95.3024 612.815 94.9826C612.249 94.6535 611.801 94.1966 611.472 93.6117C611.152 93.0176 610.992 92.3322 610.992 91.5553C610.992 90.7785 611.148 90.0976 611.458 89.5127C611.778 88.9186 612.221 88.4617 612.788 88.1418C613.364 87.8219 614.022 87.662 614.762 87.662C615.475 87.662 616.11 87.8173 616.668 88.1281C617.225 88.4388 617.659 88.8775 617.97 89.4441C618.281 90.0016 618.436 90.6459 618.436 91.3771ZM616.805 90.8836C616.796 90.3078 616.59 89.8463 616.188 89.499C615.786 89.1517 615.288 88.978 614.694 88.978C614.154 88.978 613.693 89.1517 613.309 89.499C612.925 89.8371 612.697 90.2987 612.624 90.8836H616.805ZM624.242 87.662C624.836 87.662 625.366 87.7853 625.832 88.0321C626.308 88.2789 626.678 88.6444 626.943 89.1288C627.208 89.6132 627.34 90.1981 627.34 90.8836V95.339H625.791V91.1166C625.791 90.4403 625.622 89.9239 625.284 89.5675C624.946 89.2019 624.484 89.0191 623.899 89.0191C623.315 89.0191 622.848 89.2019 622.501 89.5675C622.163 89.9239 621.994 90.4403 621.994 91.1166V95.339H620.431V87.7853H621.994V88.649C622.25 88.3383 622.574 88.0961 622.967 87.9224C623.369 87.7488 623.794 87.662 624.242 87.662ZM632.533 95.4624C631.939 95.4624 631.404 95.3573 630.929 95.1471C630.463 94.9277 630.092 94.6353 629.818 94.2697C629.544 93.895 629.398 93.4791 629.38 93.0222H630.997C631.025 93.342 631.175 93.6117 631.45 93.831C631.733 94.0412 632.085 94.1463 632.505 94.1463C632.944 94.1463 633.282 94.0641 633.52 93.8995C633.766 93.7259 633.89 93.5066 633.89 93.2415C633.89 92.9582 633.753 92.748 633.479 92.6109C633.214 92.4738 632.789 92.323 632.204 92.1585C631.637 92.0031 631.175 91.8523 630.819 91.7061C630.463 91.5599 630.152 91.336 629.887 91.0344C629.631 90.7328 629.503 90.3352 629.503 89.8417C629.503 89.4396 629.622 89.074 629.859 88.745C630.097 88.4068 630.435 88.1418 630.874 87.9498C631.322 87.7579 631.834 87.662 632.409 87.662C633.268 87.662 633.958 87.8813 634.479 88.32C635.009 88.7495 635.293 89.339 635.329 90.0885H633.766C633.739 89.7503 633.602 89.4807 633.355 89.2796C633.108 89.0786 632.775 88.978 632.354 88.978C631.943 88.978 631.628 89.0557 631.409 89.2111C631.189 89.3664 631.08 89.5721 631.08 89.828C631.08 90.029 631.153 90.1981 631.299 90.3352C631.445 90.4723 631.623 90.582 631.834 90.6642C632.044 90.7373 632.354 90.8333 632.766 90.9521C633.314 91.0983 633.762 91.2491 634.109 91.4045C634.466 91.5507 634.772 91.7701 635.028 92.0625C635.284 92.355 635.416 92.7434 635.425 93.2278C635.425 93.6574 635.306 94.0412 635.069 94.3794C634.831 94.7175 634.493 94.9826 634.054 95.1745C633.625 95.3664 633.118 95.4624 632.533 95.4624ZM644.494 91.3771C644.494 91.6604 644.476 91.9163 644.439 92.1448H638.668C638.713 92.748 638.937 93.2324 639.339 93.5979C639.741 93.9635 640.235 94.1463 640.82 94.1463C641.661 94.1463 642.255 93.7944 642.602 93.0907H644.288C644.06 93.7853 643.644 94.3565 643.041 94.8043C642.447 95.243 641.706 95.4624 640.82 95.4624C640.098 95.4624 639.449 95.3024 638.873 94.9826C638.307 94.6535 637.859 94.1966 637.53 93.6117C637.21 93.0176 637.05 92.3322 637.05 91.5553C637.05 90.7785 637.205 90.0976 637.516 89.5127C637.836 88.9186 638.279 88.4617 638.846 88.1418C639.422 87.8219 640.08 87.662 640.82 87.662C641.533 87.662 642.168 87.8173 642.725 88.1281C643.283 88.4388 643.717 88.8775 644.028 89.4441C644.339 90.0016 644.494 90.6459 644.494 91.3771ZM642.863 90.8836C642.853 90.3078 642.648 89.8463 642.246 89.499C641.844 89.1517 641.345 88.978 640.751 88.978C640.212 88.978 639.751 89.1517 639.367 89.499C638.983 89.8371 638.754 90.2987 638.681 90.8836H642.863ZM649.231 95.4624C648.637 95.4624 648.102 95.3573 647.627 95.1471C647.161 94.9277 646.79 94.6353 646.516 94.2697C646.242 93.895 646.096 93.4791 646.078 93.0222H647.695C647.723 93.342 647.873 93.6117 648.148 93.831C648.431 94.0412 648.783 94.1463 649.203 94.1463C649.642 94.1463 649.98 94.0641 650.218 93.8995C650.464 93.7259 650.588 93.5066 650.588 93.2415C650.588 92.9582 650.451 92.748 650.177 92.6109C649.912 92.4738 649.487 92.323 648.902 92.1585C648.335 92.0031 647.873 91.8523 647.517 91.7061C647.161 91.5599 646.85 91.336 646.585 91.0344C646.329 90.7328 646.201 90.3352 646.201 89.8417C646.201 89.4396 646.32 89.074 646.557 88.745C646.795 88.4068 647.133 88.1418 647.572 87.9498C648.02 87.7579 648.532 87.662 649.107 87.662C649.966 87.662 650.656 87.8813 651.177 88.32C651.707 88.7495 651.991 89.339 652.027 90.0885H650.464C650.437 89.7503 650.3 89.4807 650.053 89.2796C649.806 89.0786 649.473 88.978 649.052 88.978C648.641 88.978 648.326 89.0557 648.107 89.2111C647.887 89.3664 647.778 89.5721 647.778 89.828C647.778 90.029 647.851 90.1981 647.997 90.3352C648.143 90.4723 648.321 90.582 648.532 90.6642C648.742 90.7373 649.052 90.8333 649.464 90.9521C650.012 91.0983 650.46 91.2491 650.807 91.4045C651.164 91.5507 651.47 91.7701 651.726 92.0625C651.982 92.355 652.114 92.7434 652.123 93.2278C652.123 93.6574 652.004 94.0412 651.767 94.3794C651.529 94.7175 651.191 94.9826 650.752 95.1745C650.323 95.3664 649.816 95.4624 649.231 95.4624Z" fill="#1A202C"/>
<defs>
<filter id="filter0_d_1_4498" x="0.309771" y="0.309771" width="985.504" height="613.504" filterUnits="userSpaceOnUse" color-interpolation-filters="sRGB">
<feFlood flood-opacity="0" result="BackgroundImageFix"/>
<feColorMatrix in="SourceAlpha" type="matrix" values="0 0 0 0 0 0 0 0 0 0 0 0 0 0 0 0 0 0 127 0" result="hardAlpha"/>
<feOffset dx="20.0619" dy="20.0619"/>
<feGaussianBlur stdDeviation="34.8761"/>
<feComposite in2="hardAlpha" operator="out"/>
<feColorMatrix type="matrix" values="0 0 0 0 0 0 0 0 0 0 0 0 0 0 0 0 0 0 0.12 0"/>
<feBlend mode="normal" in2="BackgroundImageFix" result="effect1_dropShadow_1_4498"/>
<feBlend mode="normal" in="SourceGraphic" in2="effect1_dropShadow_1_4498" result="shape"/>
</filter>
</defs>
</svg>
