<svg width="19" height="24" viewBox="0 0 19 24" fill="none" xmlns="http://www.w3.org/2000/svg">
<path d="M15.3183 0.960938H3.8586C2.14188 0.960938 0.737305 2.35437 0.737305 4.08224V20.1235C0.737305 21.8514 2.14188 23.256 3.8586 23.256H15.3183C17.0462 23.256 18.4396 21.8514 18.4396 20.1235V4.08224C18.4396 2.35437 17.0462 0.960938 15.3183 0.960938ZM5.00683 17.0468H14.1701C14.6383 17.0468 15.0061 17.4259 15.0061 17.8829C15.0061 18.34 14.6383 18.719 14.1701 18.719H5.00683C4.54978 18.719 4.17077 18.34 4.17077 17.8829C4.17077 17.4259 4.54978 17.0468 5.00683 17.0468ZM4.17077 12.1531C4.17077 11.696 4.54978 11.317 5.00683 11.317H14.1701C14.6383 11.317 15.0061 11.696 15.0061 12.1531C15.0061 12.6213 14.6383 12.9891 14.1701 12.9891H5.00683C4.54978 12.9891 4.17077 12.6213 4.17077 12.1531ZM14.1701 7.25929H5.00683C4.54978 7.25929 4.17077 6.89142 4.17077 6.42323C4.17077 5.96618 4.54978 5.58716 5.00683 5.58716H14.1701C14.6383 5.58716 15.0061 5.96618 15.0061 6.42323C15.0061 6.89142 14.6383 7.25929 14.1701 7.25929Z" fill="black"/>
</svg>
