<svg width="23" height="23" viewBox="0 0 23 23" fill="none" xmlns="http://www.w3.org/2000/svg">
<path d="M18.1018 0.00561523H4.34566C1.99353 0.00561523 0.0761719 1.92299 0.0761719 4.27512V18.0312C0.0761719 20.3833 1.99353 22.3007 4.34566 22.3007H18.1018C20.1306 22.3007 21.825 20.8738 22.2598 18.9787C22.3267 18.8561 22.3713 18.7223 22.3713 18.5774V4.27512C22.3713 1.92299 20.4539 0.00561523 18.1018 0.00561523ZM18.9378 12.3014C18.9378 12.7584 18.5588 13.1374 18.1018 13.1374C17.6336 13.1374 17.2657 12.7584 17.2657 12.3014V10.005C17.2657 9.54791 17.6336 9.16889 18.1018 9.16889C18.5588 9.16889 18.9378 9.54791 18.9378 10.005V12.3014ZM3.5096 12.3014V10.005C3.5096 9.54791 3.88862 9.16889 4.34566 9.16889C4.81386 9.16889 5.18173 9.54791 5.18173 10.005V12.3014C5.18173 12.7584 4.81386 13.1374 4.34566 13.1374C3.88862 13.1374 3.5096 12.7584 3.5096 12.3014ZM15.4932 7.71971V14.5866C15.4932 15.0548 15.1253 15.4227 14.6571 15.4227C14.2001 15.4227 13.8211 15.0548 13.8211 14.5866V7.71971C13.8211 7.25152 14.2001 6.88365 14.6571 6.88365C15.1253 6.88365 15.4932 7.25152 15.4932 7.71971ZM12.0598 5.42332V16.883C12.0598 17.34 11.6808 17.7191 11.2237 17.7191C10.7667 17.7191 10.3876 17.34 10.3876 16.883V5.42332C10.3876 4.96627 10.7667 4.58725 11.2237 4.58725C11.6808 4.58725 12.0598 4.96627 12.0598 5.42332ZM8.62635 7.71971V14.5866C8.62635 15.0548 8.24733 15.4227 7.79029 15.4227C7.32209 15.4227 6.95422 15.0548 6.95422 14.5866V7.71971C6.95422 7.25152 7.32209 6.88365 7.79029 6.88365C8.24733 6.88365 8.62635 7.25152 8.62635 7.71971Z" fill="black"/>
</svg>
