<svg width="26" height="25" viewBox="0 0 26 25" fill="none" xmlns="http://www.w3.org/2000/svg">
<path fill-rule="evenodd" clip-rule="evenodd" d="M21.3141 12.4568C21.3141 13.2645 22.0075 13.9217 22.8597 13.9217C23.2894 13.9217 23.6382 14.2523 23.6382 14.6596V17.3168C23.6382 19.5638 21.7096 21.3917 19.3388 21.3917H7.17862C4.80782 21.3917 2.87817 19.5638 2.87817 17.3168V14.6596C2.87817 14.2523 3.22694 13.9217 3.65668 13.9217C4.50991 13.9217 5.2033 13.2645 5.2033 12.4568C5.2033 11.6698 4.53794 11.0776 3.65668 11.0776C3.45011 11.0776 3.25289 10.9998 3.10653 10.8611C2.96018 10.7224 2.87817 10.5345 2.87817 10.3397L2.88025 7.5959C2.88025 5.3489 4.80886 3.52002 7.17965 3.52002H19.3367C21.7075 3.52002 23.6372 5.3489 23.6372 7.5959L23.6382 10.2541C23.6382 10.4489 23.5562 10.6378 23.4109 10.7755C23.2645 10.9142 23.0673 10.992 22.8597 10.992C22.0075 10.992 21.3141 11.6491 21.3141 12.4568ZM15.5958 13.0995L16.8196 11.9701C17.0324 11.7753 17.1061 11.488 17.0138 11.2224C16.9224 10.9568 16.6837 10.7679 16.3951 10.7295L14.7042 10.4954L13.9475 9.04327C13.8177 8.79339 13.5541 8.63795 13.2603 8.63696H13.2583C12.9655 8.63696 12.7019 8.79241 12.5701 9.04229L11.8134 10.4954L10.1256 10.7285C9.83389 10.7679 9.59515 10.9568 9.50277 11.2224C9.41143 11.488 9.48513 11.7753 9.69688 11.9701L10.9207 13.0995L10.6321 14.6962C10.5823 14.9716 10.6996 15.2451 10.9383 15.4094C11.0733 15.5009 11.23 15.5481 11.3888 15.5481C11.5103 15.5481 11.6328 15.5196 11.7449 15.4635L13.2583 14.71L14.7686 15.4616C15.0301 15.5944 15.3405 15.5737 15.5782 15.4084C15.818 15.2451 15.9353 14.9716 15.8854 14.6962L15.5958 13.0995Z" fill="#D2D2D2"/>
</svg>
