<svg width="23" height="23" viewBox="0 0 23 23" fill="none" xmlns="http://www.w3.org/2000/svg">
<path d="M19.2224 3.65263C17.1712 1.60149 14.4401 0.475586 11.5417 0.475586C8.64334 0.475586 5.9122 1.60149 3.86105 3.65263C1.79875 5.70378 0.672852 8.43493 0.672852 11.3444C0.672852 12.7713 0.951542 14.1759 1.49777 15.5025C2.044 16.829 2.84662 18.0107 3.86105 19.0251C4.86433 20.0395 6.05711 20.831 7.38367 21.3772C8.71023 21.9346 10.1037 22.2133 11.5417 22.2133C12.9797 22.2133 14.3732 21.9346 15.6997 21.3772C17.0263 20.831 18.2191 20.0395 19.2224 19.0251C20.2368 18.0107 21.0394 16.829 21.5856 15.5025C22.1319 14.1759 22.4106 12.7713 22.4106 11.3444C22.4106 8.43493 21.2847 5.70378 19.2224 3.65263ZM12.3778 16.1267V16.3608C12.3778 16.8179 11.9988 17.1969 11.5417 17.1969C11.0847 17.1969 10.7056 16.8179 10.7056 16.3608V16.1156C9.72466 15.9595 8.85515 15.5359 8.29777 14.9005C8.05252 14.6107 8.03023 14.1871 8.25318 13.8749C8.47613 13.5516 8.87744 13.4402 9.23416 13.5739L10.7056 14.1313V12.1025C8.96662 11.8349 7.6958 10.709 7.6958 9.33788C7.6958 7.95558 8.96662 6.84083 10.7056 6.56214V6.32804C10.7056 5.85985 11.0847 5.49198 11.5417 5.49198C11.9988 5.49198 12.3778 5.85985 12.3778 6.32804V6.56214C13.3588 6.72936 14.2283 7.15297 14.7856 7.77723C15.0309 8.06706 15.0532 8.49067 14.8302 8.81395C14.6742 9.0369 14.4178 9.17067 14.1502 9.17067C14.0499 9.17067 13.9496 9.14837 13.8492 9.11493L12.3778 8.5464V10.5753C14.1168 10.8428 15.3876 11.9687 15.3876 13.351C15.3876 14.7333 14.1168 15.848 12.3778 16.1267Z" fill="black"/>
</svg>
