<svg width="21" height="21" viewBox="0 0 21 21" fill="none" xmlns="http://www.w3.org/2000/svg">
<path d="M0.577394 2.98414C0.577394 2.31258 0.838241 1.66853 1.30255 1.19367C1.76686 0.718802 2.3966 0.452026 3.05324 0.452026H15.2074C15.864 0.452026 16.4938 0.718802 16.9581 1.19367C17.4224 1.66853 17.6832 2.31258 17.6832 2.98414V4.14247C18.5378 4.20086 19.3388 4.58927 19.9238 5.22901C20.5089 5.86876 20.8344 6.71201 20.8343 7.58798V17.2561C20.8343 18.1718 20.4786 19.0501 19.8454 19.6976C19.2123 20.3451 18.3536 20.7089 17.4581 20.7089H3.95715C3.06173 20.7089 2.203 20.3451 1.56985 19.6976C0.936696 19.0501 0.580995 18.1718 0.580995 17.2561V7.58798H0.577394V3.21433H0.587297C0.580625 3.13779 0.577321 3.06098 0.577394 2.98414ZM16.3328 2.98414C16.3328 2.34881 15.8286 1.83318 15.2074 1.83318H3.05324C2.75477 1.83318 2.46852 1.95444 2.25747 2.17029C2.04642 2.38613 1.92785 2.67889 1.92785 2.98414C1.92785 3.28939 2.04642 3.58214 2.25747 3.79799C2.46852 4.01384 2.75477 4.1351 3.05324 4.1351H16.3328V2.98414ZM14.7572 12.422C14.5781 12.422 14.4064 12.4948 14.2798 12.6243C14.1531 12.7538 14.082 12.9294 14.082 13.1126C14.082 13.2957 14.1531 13.4714 14.2798 13.6009C14.4064 13.7304 14.5781 13.8032 14.7572 13.8032H17.008C17.1871 13.8032 17.3588 13.7304 17.4855 13.6009C17.6121 13.4714 17.6832 13.2957 17.6832 13.1126C17.6832 12.9294 17.6121 12.7538 17.4855 12.6243C17.3588 12.4948 17.1871 12.422 17.008 12.422H14.7572Z" fill="white"/>
</svg>
