<svg width="22" height="22" viewBox="0 0 22 22" fill="none" xmlns="http://www.w3.org/2000/svg">
<path d="M6.78175 14.3767H16.3597C16.945 14.3767 17.4239 14.8556 17.4239 15.441C17.4239 16.0263 16.945 16.5052 16.3597 16.5052H5.71754C5.13223 16.5052 4.65333 16.0263 4.65333 15.441V4.79883H2.52491C1.93959 4.79883 1.46069 4.31994 1.46069 3.73462C1.46069 3.14931 1.93959 2.67041 2.52491 2.67041H5.71754C6.30286 2.67041 6.78175 3.14931 6.78175 3.73462V5.86305H20.6165L16.3597 13.3125H6.78175V14.3767ZM6.24965 17.5694C7.13295 17.5694 7.84597 18.2824 7.84597 19.1657C7.84597 20.049 7.13295 20.762 6.24965 20.762C5.36635 20.762 4.65333 20.049 4.65333 19.1657C4.65333 18.2824 5.36635 17.5694 6.24965 17.5694ZM15.8276 17.5694C16.7109 17.5694 17.4239 18.2824 17.4239 19.1657C17.4239 20.049 16.7109 20.762 15.8276 20.762C14.9443 20.762 14.2312 20.049 14.2312 19.1657C14.2312 18.2824 14.9443 17.5694 15.8276 17.5694Z" fill="black"/>
</svg>
