<svg width="22" height="21" viewBox="0 0 22 21" fill="none" xmlns="http://www.w3.org/2000/svg">
<path fill-rule="evenodd" clip-rule="evenodd" d="M21.633 12.4813V20.3604H17.032V12.9989C17.032 11.1585 16.3994 9.89322 14.7315 9.89322C13.4663 9.89322 12.7186 10.7559 12.3735 11.5611C12.2585 11.8486 12.201 12.2512 12.201 12.6538V20.3604H7.60001C7.60001 20.3604 7.65752 7.88031 7.60001 6.61505H12.201V8.57045C12.201 8.57045 12.201 8.62795 12.1435 8.62795H12.201V8.57045C12.8336 7.65026 13.8689 6.26997 16.3419 6.26997C19.3325 6.26997 21.633 8.28289 21.633 12.4813ZM2.88347 0.00115967C1.33063 0.00115967 0.29541 1.03638 0.29541 2.35915C0.29541 3.68192 1.27312 4.71715 2.82595 4.71715H2.88347C4.49381 4.71715 5.47152 3.68193 5.47152 2.35915C5.41401 1.03638 4.4363 0.00115967 2.88347 0.00115967ZM0.526056 20.3604H5.06954V6.61507H0.526056V20.3604Z" fill="#535353"/>
</svg>
