<svg width="256" height="16" viewBox="0 0 256 16" fill="none" xmlns="http://www.w3.org/2000/svg">
<path fill-rule="evenodd" clip-rule="evenodd" d="M172.326 7.97131H170.099V15.9419H166.778V9.27536V7.97131H165.215V5.15817H166.778V3.32181C166.778 2.03245 167.403 0.000732422 170.099 0.000732422H172.561V2.73574H170.802C170.529 2.73574 170.099 2.89203 170.099 3.51717V5.15817H172.6L172.326 7.97131Z" fill="black"/>
<path fill-rule="evenodd" clip-rule="evenodd" d="M7.93271 0C8.99321 0.0378781 10.0916 0.0378781 11.1521 0.0757512C12.099 0.113624 12.9701 0.265125 13.8033 0.757496C14.8638 1.40137 15.5077 2.34824 15.735 3.56023C15.8486 4.27985 15.8865 5.03735 15.9243 5.75698C15.9622 7.34771 15.9243 8.93846 15.9243 10.5292C15.9243 11.3624 15.8865 12.1957 15.6213 12.9911C15.0911 14.5439 13.9927 15.4908 12.402 15.7938C11.6823 15.9453 10.9248 15.9453 10.2052 15.9832C8.61446 16.021 7.06159 15.9832 5.47083 15.9832C4.63758 15.9832 3.80433 15.9453 3.00896 15.6802C1.45608 15.1499 0.509209 14.0515 0.206207 12.4608C0.0547099 11.7412 0.0547099 10.9837 0.0168343 10.2641C-0.0210429 8.67333 0.0168343 7.08259 0.0168343 5.49185C0.0168343 4.65861 0.0547099 3.82536 0.319834 3.02998C0.850086 1.47711 1.94846 0.530251 3.53921 0.227251C4.25884 0.0757562 5.01634 0.0757562 5.73596 0.0378781C6.45559 0 7.17521 0 7.93271 0ZM14.4863 7.84006C14.4484 7.84006 14.4863 7.84006 14.4863 7.84006C14.4484 7.19618 14.4484 6.59018 14.4484 5.94631C14.4484 5.34032 14.4105 4.73432 14.3348 4.12833C14.1833 2.76483 13.3879 1.85583 12.0623 1.59071C11.3805 1.43921 10.623 1.43921 9.94127 1.43921C8.57776 1.40134 7.25214 1.40134 5.88864 1.43921C5.20689 1.43921 4.52514 1.47708 3.88126 1.59071C2.74501 1.78008 1.94964 2.42396 1.60876 3.5602C1.49514 3.93895 1.45726 4.3177 1.41939 4.69644C1.38151 6.13569 1.38151 7.57493 1.38151 9.01417C1.38151 9.92317 1.41939 10.87 1.49514 11.779C1.60876 13.1425 2.44201 14.0894 3.80551 14.3166C4.48726 14.4303 5.20689 14.4681 5.92651 14.4681C7.25214 14.506 8.57776 14.4681 9.94127 14.4681C10.5473 14.4681 11.1533 14.4303 11.7593 14.3545C12.3274 14.3166 12.8576 14.1273 13.3121 13.7485C14.0696 13.1425 14.3348 12.3472 14.3726 11.4382C14.4484 10.3019 14.4484 9.08992 14.4863 7.84006Z" fill="black"/>
<path fill-rule="evenodd" clip-rule="evenodd" d="M12.0248 7.99134C12.0248 10.2638 10.2068 12.0818 7.93426 12.0818C5.66175 12.0818 3.84375 10.2638 3.84375 7.95347C3.84375 5.71886 5.69962 3.90088 7.97213 3.90088C10.2068 3.90088 12.0248 5.71886 12.0248 7.99134ZM7.93337 10.6426C9.37262 10.6426 10.5846 9.43063 10.5846 7.9914C10.5846 6.55216 9.37262 5.34017 7.93337 5.34017C6.45624 5.34017 5.28211 6.55216 5.28211 7.9914C5.24424 9.43063 6.45624 10.6426 7.93337 10.6426Z" fill="black"/>
<path d="M13.1222 3.71152C13.1222 4.24178 12.7055 4.69628 12.1753 4.69628C11.645 4.69628 11.1905 4.24178 11.2284 3.71152C11.2284 3.18128 11.645 2.76465 12.1753 2.76465C12.7055 2.76465 13.1222 3.18127 13.1222 3.71152Z" fill="black"/>
<path fill-rule="evenodd" clip-rule="evenodd" d="M98.5486 9.32461V15.2112H95.1112V9.71132C95.1112 8.33635 94.6385 7.39106 93.3925 7.39106C92.4472 7.39106 91.8886 8.03558 91.6308 8.63713C91.5448 8.85196 91.5019 9.15274 91.5019 9.45351V15.2112H88.0644C88.0644 15.2112 88.1074 5.88718 88.0644 4.94189H91.5019V6.4028C91.5019 6.4028 91.5019 6.44576 91.4589 6.44576H91.5019V6.4028C91.9745 5.71531 92.7479 4.68408 94.5956 4.68408C96.8299 4.68408 98.5486 6.18796 98.5486 9.32461ZM84.5409 0.000610352C83.3808 0.000610352 82.6074 0.774033 82.6074 1.7623C82.6074 2.75055 83.3378 3.52398 84.498 3.52398H84.5409C85.744 3.52398 86.4745 2.75056 86.4745 1.7623C86.4315 0.774033 85.7011 0.000610352 84.5409 0.000610352ZM82.7793 15.2114H86.1738V4.94206H82.7793V15.2114Z" fill="black"/>
<path fill-rule="evenodd" clip-rule="evenodd" d="M255.207 2.8584C254.607 3.12096 254.007 3.30851 253.332 3.38352C254.007 2.97093 254.532 2.33328 254.757 1.58312C254.119 1.9582 253.407 2.22076 252.694 2.37079C252.094 1.73315 251.231 1.32056 250.293 1.32056C248.493 1.32056 247.03 2.78338 247.03 4.58379C247.03 4.84635 247.068 5.1089 247.105 5.33396C244.367 5.18392 241.967 3.90863 240.354 1.92069C240.054 2.4083 239.904 2.97093 239.904 3.57106C239.904 4.69632 240.466 5.70904 241.366 6.30917C240.841 6.30917 240.316 6.15914 239.866 5.89658V5.93409C239.866 7.50944 240.991 8.85974 242.492 9.1598C242.229 9.23482 241.929 9.27233 241.629 9.27233C241.404 9.27233 241.216 9.23482 241.029 9.19732C241.441 10.5101 242.642 11.4478 244.105 11.4853C242.979 12.348 241.591 12.8731 240.054 12.8731C239.791 12.8731 239.528 12.8731 239.266 12.8356C240.729 13.7733 242.417 14.2985 244.292 14.2985C250.331 14.2985 253.594 9.30984 253.594 4.99638C253.594 4.84635 253.594 4.69632 253.594 4.58379C254.232 4.09618 254.795 3.49604 255.207 2.8584Z" fill="black"/>
</svg>
