<svg width="22" height="22" viewBox="0 0 22 22" fill="none" xmlns="http://www.w3.org/2000/svg">
<circle cx="11.0402" cy="10.8639" r="10.3839" fill="white"/>
<path fill-rule="evenodd" clip-rule="evenodd" d="M11.0389 1.99731C6.14215 1.99731 2.17236 5.9671 2.17236 10.8638C2.17236 15.7606 6.14215 19.7304 11.0389 19.7304C15.9356 19.7304 19.9054 15.7606 19.9054 10.8638C19.9054 5.9671 15.9356 1.99731 11.0389 1.99731ZM14.8821 9.3646C14.9529 9.28371 15.0068 9.18948 15.0406 9.08745C15.0744 8.98543 15.0875 8.87768 15.079 8.77053C15.0706 8.66338 15.0408 8.559 14.9914 8.46354C14.942 8.36807 14.8741 8.28345 14.7915 8.21464C14.7089 8.14584 14.6134 8.09424 14.5106 8.06288C14.4078 8.03152 14.2998 8.02105 14.1929 8.03206C14.086 8.04308 13.9823 8.07536 13.8881 8.12702C13.7938 8.17868 13.7109 8.24866 13.644 8.33286L10.178 12.4913L8.38458 10.697C8.23256 10.5502 8.02895 10.4689 7.8176 10.4708C7.60626 10.4726 7.40409 10.5574 7.25465 10.7068C7.1052 10.8563 7.02043 11.0584 7.01859 11.2698C7.01675 11.4811 7.098 11.6847 7.24483 11.8368L9.66297 14.2549C9.74217 14.334 9.83699 14.3958 9.94139 14.4363C10.0458 14.4768 10.1575 14.4951 10.2693 14.49C10.3812 14.4849 10.4908 14.4566 10.5911 14.4068C10.6914 14.357 10.7802 14.2869 10.8519 14.2009L14.8821 9.3646Z" fill="#007AFF"/>
</svg>
