<svg width="180" height="117" viewBox="0 0 180 117" fill="none" xmlns="http://www.w3.org/2000/svg">
<path fill-rule="evenodd" clip-rule="evenodd" d="M70.7849 11.1497C70.7849 6.43315 74.6084 2.60962 79.325 2.60962H97.1378C99.4028 2.60962 101.575 3.50938 103.177 5.11095L106.714 8.64837C108.316 10.2499 109.215 12.4222 109.215 14.6871V41.04C109.215 45.7566 105.392 49.5801 100.675 49.5801H79.325C74.6084 49.5801 70.7849 45.7566 70.7849 41.04V11.1497ZM104.945 17.5548V41.04C104.945 43.3983 103.033 45.31 100.675 45.31H79.325C76.9667 45.31 75.055 43.3983 75.055 41.04V11.1497C75.055 8.79142 76.9667 6.87966 79.325 6.87966H94.2701V11.1497C94.2701 14.6871 97.1378 17.5548 100.675 17.5548H104.945ZM104.708 13.2847C104.499 12.6818 104.155 12.1277 103.695 11.6677L100.157 8.13033C99.6972 7.67037 99.1431 7.32618 98.5402 7.11652V11.1497C98.5402 12.3288 99.4961 13.2847 100.675 13.2847H104.708Z" fill="#141416"/>
<path d="M89.183 19.8517C88.9312 19.9559 88.6953 20.1103 88.4906 20.315L82.0855 26.7201C81.2518 27.5539 81.2518 28.9057 82.0855 29.7395C82.9193 30.5732 84.2711 30.5732 85.1049 29.7395L87.8653 26.9791V36.7699C87.8653 37.949 88.8212 38.9049 90.0003 38.9049C91.1794 38.9049 92.1353 37.949 92.1353 36.7699V26.9791L94.8957 29.7395C95.7294 30.5732 97.0813 30.5732 97.915 29.7395C98.7488 28.9057 98.7488 27.5539 97.915 26.7201L91.51 20.315C90.8809 19.686 89.9569 19.5315 89.183 19.8517Z" fill="#141416"/>
<path d="M13.7028 74.9467C13.7028 75.8383 13.3953 76.5812 12.7804 77.1756C12.1758 77.7598 11.2484 78.0519 9.99809 78.0519H7.93822V82.5251H6.53935V71.8108H9.99809C11.2074 71.8108 12.1246 72.1028 12.7497 72.687C13.3851 73.2711 13.7028 74.0243 13.7028 74.9467ZM9.99809 76.8989C10.7769 76.8989 11.3508 76.7298 11.7198 76.3917C12.0887 76.0535 12.2732 75.5718 12.2732 74.9467C12.2732 73.6247 11.5148 72.9637 9.99809 72.9637H7.93822V76.8989H9.99809ZM23.8653 82.5251H22.4665L16.8403 73.9936V82.5251H15.4414V71.7954H16.8403L22.4665 80.3116V71.7954H23.8653V82.5251ZM34.3664 74.9159C34.0692 74.2908 33.6388 73.8091 33.0752 73.4709C32.5115 73.1225 31.8556 72.9483 31.1075 72.9483C30.3594 72.9483 29.683 73.1225 29.0784 73.4709C28.484 73.8091 28.0126 74.301 27.6642 74.9467C27.326 75.5821 27.1569 76.3199 27.1569 77.1603C27.1569 78.0006 27.326 78.7385 27.6642 79.3739C28.0126 80.0092 28.484 80.5011 29.0784 80.8496C29.683 81.1878 30.3594 81.3569 31.1075 81.3569C32.1528 81.3569 33.0137 81.0443 33.6901 80.4192C34.3664 79.794 34.761 78.9486 34.8737 77.8828H30.6003V76.7452H36.3648V77.8213C36.2828 78.7026 36.0061 79.5122 35.5347 80.2501C35.0633 80.9777 34.4433 81.5567 33.6747 81.9871C32.9061 82.4073 32.0504 82.6174 31.1075 82.6174C30.1135 82.6174 29.2065 82.3868 28.3867 81.9256C27.5668 81.4542 26.9161 80.8035 26.4344 79.9734C25.963 79.1433 25.7273 78.2056 25.7273 77.1603C25.7273 76.115 25.963 75.1773 26.4344 74.3472C26.9161 73.5068 27.5668 72.8561 28.3867 72.3949C29.2065 71.9235 30.1135 71.6878 31.1075 71.6878C32.2451 71.6878 33.2494 71.9696 34.1205 72.5332C35.0018 73.0969 35.6423 73.8911 36.042 74.9159H34.3664ZM39.6594 80.5883L37.9377 84.7234H37L38.1222 80.5883H39.6594ZM53.4765 74.9159C53.1793 74.2908 52.7489 73.8091 52.1853 73.4709C51.6216 73.1225 50.9658 72.9483 50.2176 72.9483C49.4695 72.9483 48.7932 73.1225 48.1885 73.4709C47.5941 73.8091 47.1227 74.301 46.7743 74.9467C46.4361 75.5821 46.267 76.3199 46.267 77.1603C46.267 78.0006 46.4361 78.7385 46.7743 79.3739C47.1227 80.0092 47.5941 80.5011 48.1885 80.8496C48.7932 81.1878 49.4695 81.3569 50.2176 81.3569C51.2629 81.3569 52.1238 81.0443 52.8002 80.4192C53.4765 79.794 53.8711 78.9486 53.9838 77.8828H49.7104V76.7452H55.4749V77.8213C55.3929 78.7026 55.1162 79.5122 54.6448 80.2501C54.1734 80.9777 53.5534 81.5567 52.7848 81.9871C52.0162 82.4073 51.1605 82.6174 50.2176 82.6174C49.2236 82.6174 48.3166 82.3868 47.4968 81.9256C46.6769 81.4542 46.0262 80.8035 45.5445 79.9734C45.0731 79.1433 44.8374 78.2056 44.8374 77.1603C44.8374 76.115 45.0731 75.1773 45.5445 74.3472C46.0262 73.5068 46.6769 72.8561 47.4968 72.3949C48.3166 71.9235 49.2236 71.6878 50.2176 71.6878C51.3552 71.6878 52.3595 71.9696 53.2306 72.5332C54.1119 73.0969 54.7524 73.8911 55.1521 74.9159H53.4765ZM58.7234 71.8108V82.5251H57.3245V71.8108H58.7234ZM67.1641 71.8108V72.9483H62.5063V76.5608H66.2879V77.6983H62.5063V82.5251H61.1075V71.8108H67.1641ZM70.2986 80.5883L68.5769 84.7234H67.6392L68.7614 80.5883H70.2986ZM89.4653 71.8108L86.3601 82.5251H84.7921L82.3018 73.9014L79.7193 82.5251L78.1667 82.5405L75.1692 71.8108H76.6603L78.9968 80.8957L81.5793 71.8108H83.1473L85.6068 80.865L87.9588 71.8108H89.4653ZM92.395 72.9483V76.53H96.2995V77.6829H92.395V81.3722H96.7607V82.5251H90.9961V71.7954H96.7607V72.9483H92.395ZM104.242 77.0065C104.632 77.068 104.985 77.2269 105.303 77.4831C105.631 77.7393 105.887 78.057 106.072 78.4362C106.266 78.8153 106.364 79.2201 106.364 79.6506C106.364 80.1937 106.225 80.6856 105.949 81.1263C105.672 81.5567 105.267 81.9 104.734 82.1562C104.211 82.4022 103.591 82.5251 102.874 82.5251H98.8773V71.8108H102.72C103.448 71.8108 104.068 71.9337 104.58 72.1797C105.093 72.4154 105.477 72.7382 105.733 73.1481C105.99 73.5581 106.118 74.0192 106.118 74.5316C106.118 75.167 105.943 75.6948 105.595 76.115C105.257 76.5249 104.806 76.8221 104.242 77.0065ZM100.276 76.4378H102.628C103.284 76.4378 103.791 76.2841 104.15 75.9766C104.509 75.6692 104.688 75.2439 104.688 74.7007C104.688 74.1576 104.509 73.7323 104.15 73.4248C103.791 73.1174 103.274 72.9637 102.597 72.9637H100.276V76.4378ZM102.751 81.3722C103.448 81.3722 103.991 81.2083 104.381 80.8803C104.77 80.5524 104.965 80.0963 104.965 79.5122C104.965 78.9178 104.76 78.4515 104.35 78.1133C103.94 77.7649 103.392 77.5907 102.705 77.5907H100.276V81.3722H102.751ZM115.468 74.9467C115.468 75.8383 115.161 76.5812 114.546 77.1756C113.941 77.7598 113.014 78.0519 111.764 78.0519H109.704V82.5251H108.305V71.8108H111.764C112.973 71.8108 113.89 72.1028 114.515 72.687C115.151 73.2711 115.468 74.0243 115.468 74.9467ZM111.764 76.8989C112.542 76.8989 113.116 76.7298 113.485 76.3917C113.854 76.0535 114.039 75.5718 114.039 74.9467C114.039 73.6247 113.28 72.9637 111.764 72.9637H109.704V76.8989H111.764ZM118.652 80.5883L116.93 84.7234H115.992L117.115 80.5883H118.652ZM135.221 71.8876V82.5251H133.822V74.5931L130.286 82.5251H129.302L125.751 74.5777V82.5251H124.352V71.8876H125.859L129.794 80.6805L133.729 71.8876H135.221ZM144.756 74.9467C144.756 75.8383 144.449 76.5812 143.834 77.1756C143.229 77.7598 142.302 78.0519 141.052 78.0519H138.992V82.5251H137.593V71.8108H141.052C142.261 71.8108 143.178 72.1028 143.803 72.687C144.439 73.2711 144.756 74.0243 144.756 74.9467ZM141.052 76.8989C141.831 76.8989 142.404 76.7298 142.773 76.3917C143.142 76.0535 143.327 75.5718 143.327 74.9467C143.327 73.6247 142.568 72.9637 141.052 72.9637H138.992V76.8989H141.052ZM145.926 80.0502V78.9896L151.322 71.5187H152.997V78.8358H154.535V80.0502H152.997V82.5251H151.614V80.0502H145.926ZM151.675 72.979L147.54 78.8358H151.675V72.979ZM163.935 82.6635C163.146 82.6635 162.428 82.4842 161.783 82.1255C161.147 81.7668 160.645 81.2595 160.276 80.6036C159.918 79.9375 159.738 79.1689 159.738 78.2978C159.738 77.437 159.923 76.6786 160.292 76.0227C160.671 75.3566 161.183 74.8493 161.829 74.5009C162.474 74.1422 163.197 73.9629 163.996 73.9629C164.796 73.9629 165.518 74.1422 166.164 74.5009C166.809 74.8493 167.317 75.3515 167.686 76.0074C168.065 76.6632 168.254 77.4267 168.254 78.2978C168.254 79.1689 168.06 79.9375 167.67 80.6036C167.291 81.2595 166.774 81.7668 166.118 82.1255C165.462 82.4842 164.734 82.6635 163.935 82.6635ZM163.935 81.4337C164.437 81.4337 164.908 81.3159 165.349 81.0802C165.79 80.8445 166.143 80.4909 166.41 80.0195C166.686 79.5481 166.825 78.9742 166.825 78.2978C166.825 77.6214 166.692 77.0475 166.425 76.5761C166.159 76.1047 165.81 75.7563 165.38 75.5308C164.949 75.2951 164.483 75.1773 163.981 75.1773C163.469 75.1773 162.997 75.2951 162.567 75.5308C162.147 75.7563 161.808 76.1047 161.552 76.5761C161.296 77.0475 161.168 77.6214 161.168 78.2978C161.168 78.9844 161.291 79.5634 161.537 80.0349C161.793 80.5063 162.131 80.8598 162.551 81.0955C162.971 81.321 163.433 81.4337 163.935 81.4337ZM171.492 75.4693C171.738 74.9877 172.087 74.6136 172.538 74.3472C172.999 74.0807 173.557 73.9475 174.213 73.9475V75.3925H173.844C172.276 75.3925 171.492 76.2431 171.492 77.9442V82.5251H170.094V74.1012H171.492V75.4693ZM49.9982 97.8876V108.525H48.5994V100.593L45.0638 108.525H44.08L40.529 100.578V108.525H39.1301V97.8876H40.6366L44.5719 106.68L48.5071 97.8876H49.9982ZM59.534 100.947C59.534 101.838 59.2266 102.581 58.6117 103.176C58.007 103.76 57.0796 104.052 55.8293 104.052H53.7694V108.525H52.3706V97.8108H55.8293C57.0386 97.8108 57.9558 98.1028 58.5809 98.687C59.2163 99.2711 59.534 100.024 59.534 100.947ZM55.8293 102.899C56.6082 102.899 57.1821 102.73 57.551 102.392C57.9199 102.053 58.1044 101.572 58.1044 100.947C58.1044 99.6247 57.346 98.9637 55.8293 98.9637H53.7694V102.899H55.8293ZM61.0113 100.209C61.083 99.266 61.4468 98.5281 62.1027 97.9952C62.7586 97.4623 63.6092 97.1959 64.6545 97.1959C65.3514 97.1959 65.9509 97.324 66.453 97.5802C66.9654 97.8261 67.3497 98.1643 67.6059 98.5947C67.8724 99.0252 68.0056 99.5119 68.0056 100.055C68.0056 100.69 67.8212 101.239 67.4522 101.7C67.0935 102.161 66.6221 102.458 66.038 102.591V102.668C66.7041 102.832 67.2319 103.155 67.6213 103.637C68.0107 104.118 68.2055 104.749 68.2055 105.528C68.2055 106.112 68.0722 106.639 67.8058 107.111C67.5393 107.572 67.1397 107.936 66.6068 108.202C66.0739 108.469 65.4334 108.602 64.6852 108.602C63.5989 108.602 62.7074 108.32 62.0105 107.757C61.3136 107.183 60.9242 106.373 60.8422 105.328H62.195C62.2667 105.943 62.5178 106.445 62.9482 106.834C63.3786 107.224 63.9525 107.418 64.6699 107.418C65.3872 107.418 65.9304 107.234 66.2993 106.865C66.6785 106.486 66.8681 105.999 66.8681 105.405C66.8681 104.636 66.6119 104.083 66.0995 103.744C65.5871 103.406 64.8133 103.237 63.7783 103.237H63.4247V102.069H63.7937C64.7365 102.059 65.4487 101.905 65.9304 101.608C66.412 101.3 66.6529 100.829 66.6529 100.193C66.6529 99.6503 66.4735 99.2147 66.1148 98.8868C65.7664 98.5589 65.2643 98.3949 64.6084 98.3949C63.973 98.3949 63.4606 98.5589 63.0712 98.8868C62.6817 99.2147 62.4512 99.6554 62.3794 100.209H61.0113ZM70.7706 108.617C70.5041 108.617 70.2787 108.525 70.0942 108.341C69.9097 108.156 69.8175 107.931 69.8175 107.664C69.8175 107.398 69.9097 107.172 70.0942 106.988C70.2787 106.803 70.5041 106.711 70.7706 106.711C71.0268 106.711 71.242 106.803 71.4162 106.988C71.6007 107.172 71.6929 107.398 71.6929 107.664C71.6929 107.931 71.6007 108.156 71.4162 108.341C71.242 108.525 71.0268 108.617 70.7706 108.617ZM88.5187 97.8876V108.525H87.1198V100.593L83.5842 108.525H82.6004L79.0494 100.578V108.525H77.6506V97.8876H79.157L83.0923 106.68L87.0276 97.8876H88.5187ZM90.3684 104.282C90.3684 103.422 90.5426 102.668 90.891 102.023C91.2395 101.367 91.716 100.86 92.3206 100.501C92.9355 100.142 93.617 99.9629 94.3651 99.9629C95.103 99.9629 95.7435 100.122 96.2867 100.439C96.8298 100.757 97.2346 101.157 97.5011 101.638V100.101H98.9153V108.525H97.5011V106.957C97.2244 107.449 96.8093 107.859 96.2559 108.187C95.7128 108.505 95.0774 108.663 94.3498 108.663C93.6017 108.663 92.9253 108.479 92.3206 108.11C91.716 107.741 91.2395 107.224 90.891 106.558C90.5426 105.891 90.3684 105.133 90.3684 104.282ZM97.5011 104.298C97.5011 103.662 97.373 103.109 97.1168 102.638C96.8606 102.166 96.5121 101.808 96.0715 101.562C95.641 101.305 95.1645 101.177 94.6418 101.177C94.1192 101.177 93.6427 101.3 93.2122 101.546C92.7818 101.792 92.4385 102.151 92.1823 102.622C91.9261 103.094 91.798 103.647 91.798 104.282C91.798 104.928 91.9261 105.492 92.1823 105.973C92.4385 106.445 92.7818 106.809 93.2122 107.065C93.6427 107.311 94.1192 107.434 94.6418 107.434C95.1645 107.434 95.641 107.311 96.0715 107.065C96.5121 106.809 96.8606 106.445 97.1168 105.973C97.373 105.492 97.5011 104.933 97.5011 104.298ZM105.676 108.525L103.677 105.389L101.756 108.525H100.295L103.016 104.344L100.295 100.101H101.879L103.877 103.222L105.783 100.101H107.244L104.538 104.267L107.259 108.525H105.676ZM112.134 98.687V97.4111H115.024V108.525H113.61V98.687H112.134ZM125.774 100.916C125.476 100.291 125.046 99.8091 124.482 99.4709C123.919 99.1225 123.263 98.9483 122.515 98.9483C121.767 98.9483 121.09 99.1225 120.486 99.4709C119.891 99.8091 119.42 100.301 119.071 100.947C118.733 101.582 118.564 102.32 118.564 103.16C118.564 104.001 118.733 104.738 119.071 105.374C119.42 106.009 119.891 106.501 120.486 106.85C121.09 107.188 121.767 107.357 122.515 107.357C123.56 107.357 124.421 107.044 125.097 106.419C125.774 105.794 126.168 104.949 126.281 103.883H122.008V102.745H127.772V103.821C127.69 104.703 127.413 105.512 126.942 106.25C126.471 106.978 125.851 107.557 125.082 107.987C124.313 108.407 123.458 108.617 122.515 108.617C121.521 108.617 120.614 108.387 119.794 107.926C118.974 107.454 118.323 106.803 117.842 105.973C117.37 105.143 117.135 104.206 117.135 103.16C117.135 102.115 117.37 101.177 117.842 100.347C118.323 99.5068 118.974 98.8561 119.794 98.3949C120.614 97.9235 121.521 97.6878 122.515 97.6878C123.652 97.6878 124.657 97.9696 125.528 98.5332C126.409 99.0969 127.05 99.8911 127.449 100.916H125.774ZM131.021 101.669C131.307 101.167 131.728 100.757 132.281 100.439C132.834 100.122 133.465 99.9629 134.172 99.9629C134.93 99.9629 135.612 100.142 136.216 100.501C136.821 100.86 137.297 101.367 137.646 102.023C137.994 102.668 138.169 103.422 138.169 104.282C138.169 105.133 137.994 105.891 137.646 106.558C137.297 107.224 136.816 107.741 136.201 108.11C135.596 108.479 134.92 108.663 134.172 108.663C133.444 108.663 132.804 108.505 132.25 108.187C131.707 107.869 131.297 107.464 131.021 106.973V108.525H129.622V97.1498H131.021V101.669ZM136.739 104.282C136.739 103.647 136.611 103.094 136.355 102.622C136.098 102.151 135.75 101.792 135.309 101.546C134.879 101.3 134.402 101.177 133.88 101.177C133.367 101.177 132.891 101.305 132.45 101.562C132.02 101.808 131.671 102.171 131.405 102.653C131.149 103.124 131.021 103.673 131.021 104.298C131.021 104.933 131.149 105.492 131.405 105.973C131.671 106.445 132.02 106.809 132.45 107.065C132.891 107.311 133.367 107.434 133.88 107.434C134.402 107.434 134.879 107.311 135.309 107.065C135.75 106.809 136.098 106.445 136.355 105.973C136.611 105.492 136.739 104.928 136.739 104.282ZM140.456 108.617C140.189 108.617 139.964 108.525 139.779 108.341C139.595 108.156 139.503 107.931 139.503 107.664C139.503 107.398 139.595 107.172 139.779 106.988C139.964 106.803 140.189 106.711 140.456 106.711C140.712 106.711 140.927 106.803 141.101 106.988C141.286 107.172 141.378 107.398 141.378 107.664C141.378 107.931 141.286 108.156 141.101 108.341C140.927 108.525 140.712 108.617 140.456 108.617Z" fill="#777E91"/>
</svg>
